<svg id="Camada_1" data-name="Camada 1" xmlns="http://www.w3.org/2000/svg" viewBox="0 0 848 1056"><defs><style>.cls-1,.cls-3{fill:#212121;}.cls-1,.cls-2{opacity:0.4;}</style></defs><path class="cls-1" d="M413.78,123.89l-13.45-13.22L385.48,94.84c-.7-.45-.15-.68.18-.78,2.56-.78,4.84-1.39,7.09-2.17s4.44-1.56,8.58-2.78c6.85-2,9.66-2.75,10.75-3.27a.85.85,0,0,0,.2-1.37,6.13,6.13,0,0,0-2.06-1.14C395.64,78,373.79,71.17,371.67,70.56s-1.92-1.09-2-2a5.09,5.09,0,0,1,.6-1.81c1.69-2.46,10.37-15.22,11.64-20.49.06-.26-.28-.67-.69-.83a8.62,8.62,0,0,0-2.66.12l-.26,0c-2.88.43-53.62,7.92-56.1,8-2,0-2.7.09-3.32-.46a1.53,1.53,0,0,1-.51-1.12c0-3.22-.29-19.42-.39-22.2-.11-3.11-2.67-1.22-2.67-1.22L264.78,54c-3.56,1.78-3.45-1.67-3.45-1.67l-4.76-19.14a.83.83,0,0,0,0-.15l-1.42-3.69s-.87-1.33-2,.21S244.56,49,244.56,49l-8.71,19.89a.66.66,0,0,1-.95.35L208.05,56.6a.73.73,0,0,0-1,.31c-.35.63-.7,2-.32,4.61.48,3.37,6.78,27.55,8.22,32.67.15.51-.37,1.55-1.33,2.19a2.5,2.5,0,0,1-1,.37l-25.08,3.69s-8.42,1.91-7.67,3.67a8.93,8.93,0,0,0,2.33,2.33s8.19,6.86,16.89,10.12a2.85,2.85,0,0,1,2,2.94,3,3,0,0,1,.07,1.57c-.87,3.47-4.59,18.42-6.15,27.37-.79,4.54-3.19,26.6-3.19,26.6s.34,2.26,1.52,1.18c7-13.39,9.25-13.47,10.27-14.88l.1,0,1.79,35a1,1,0,0,0,.51.8c.59.31,1.54.68,1.67-.1A41.49,41.49,0,0,1,212,184.66a35.4,35.4,0,0,1,3.22-5.1l3.56-.56s6.89-3.78,9.11-5.11,9.22-5,9.22-5L248,163.63l.86-.41,7.53-1.79.74-.18,1-.25,17.69-4.22,6.17-.14,13.94-.31h13.78l24.78,2.34,33.44-3,7,5.11s5,13.44,5.11,14c0,.18.16,1.38.32,2.92.31,3.13.74,7.63.74,7.63l2.83.11,3.24,1.42,9.65,4.25s.31-8,.14-11.37c0-.19,0-.36,0-.52-.5-6.22-4.13-24.28-4.13-24.61s1.61.45,1.61.45l2.65,1.72,2.43,1.83,2.88,2.61s3.43,3.41,4.45,3.45c.61,0,.22-2.11.22-2.11A1.76,1.76,0,0,0,407,162c-.3-1-1.41-5.26-1.93-6.78-6-17.59-11.11-26.11-11.11-26.11l-.47-2.79a1.47,1.47,0,0,1,1.33-1.71l.89-.07.5,0,2.42,0,7.66.77s6.67.34,7.67,0S413.78,123.89,413.78,123.89Zm-138.29,28c-4.64.83-9.18,2.28-13.82,3.08a79.24,79.24,0,0,0-22.8,8.19,21.35,21.35,0,0,1-3.72,1.76,3.3,3.3,0,0,1-2.54-.38c-3.08-2.32-2.81-7.94.22-10.23a37,37,0,0,0,6.43-5.8,15.4,15.4,0,0,0,2.86-6.14c.74-3.13-1.82-6.3-5.47-7.44-2.4-.75-4.85.61-6.19,3.44a5,5,0,0,0,2.61,7.05,34.07,34.07,0,0,1,.27-4.51c.16-.79.81-2,1.41-2.07a3.65,3.65,0,0,1,2.84.79,4.3,4.3,0,0,1,1,2.87c0,3.81-3.48,7.22-7.33,7.59-1.69.16-2.9-.6-3-2.09-.29-3.63-.74-7.35-.24-10.91a7.54,7.54,0,0,1,8.86-6.66c2.25.35,3.48-.18,4.39-2.11,1.5-3.15,1.31-5-1.23-7.56l-1.68,3.79-11.93,5.39c-2.27-3.57-2.27-5,1.08-7.24,3.78-2.57,7.62-5.32,11.83-7,7-2.69,14.1-5.36,21.4-6.56,7.77-1.27,15.83-.81,23.76-1.14.2,0,.38-.39.88-1l7,9.26.26.36c-.78,10.07-1.43,19.35-2.23,28.62-.41,4.82-1.38,5.64-6.22,6A75.59,75.59,0,0,0,275.49,151.84Z"/><g id="Camada_2" data-name="Camada 2"><g class="cls-2"><path class="cls-3" d="M323.11,164.59s8.74,27.41,9.33,30.82a30.21,30.21,0,0,0,1.63,5.85s1.71,1.26,2.23.59a9,9,0,0,0,.89-1.48s3.33,9.7,4,10.52a1.37,1.37,0,0,0,1.48.52s1,.07,1.7-3.34,2.07-13.92,2.44-15.4,1.78-9.71,1.86-11.26-.23-7,.22-7.85,2.22-4.23,2.52-4.6-2.82.19-3.69.13-12.5-2.2-15.5-2.76S323.11,164.59,323.11,164.59Z"/><path class="cls-3" d="M381,181.48s1.48,10-5.48,30.67c-.41,1.21,9.8,22.95,13.77,33.63,1,2.59,3,9.39,3.74,11.84a4.57,4.57,0,0,0,.86,1.63s.29,1.64,9,11c.8.85-.74-12.5-1-15.26-.45-4.19-5.29-27.51-4.46-30.18.28-.89,4.78,1.14,9.47,5.06.17.15.4-.07.33-.28-4.27-13.12-10.21-18.12-10.38-24.23s-6.22-21.77-9-22.81a14.66,14.66,0,0,1-4.74-3Z"/><path d="M844.74,786a134.34,134.34,0,0,1-38.45,15.9,112.29,112.29,0,0,1-27.22,3.71c-6.76,0-13.58,2.74-20.26-.46-32-6.51-58.54-21.88-78.41-48.1-12-15.79-20-33.57-26.72-52.09-7.06-19.62-11.81-39.6-10.23-60.64.42-5.63,1-11.27,1.87-16.86.48-3.15,1.66-6.19,2.47-9.29,2.25-8.58,4.06-17.29,6.79-25.71A151.39,151.39,0,0,1,696.44,527a147,147,0,0,1,47.87-29.29c.27-.11.41-.57,1-1.4-3.72.56-6.89.87-10,1.52q-51.22,10.65-102.43,21.4c-22,4.62-44,9.43-66,14-21.28,4.38-42.61,8.51-63.92,12.72a17.54,17.54,0,0,1-2.94,0c.12-1.58.16-2.75.3-3.92,1-8.36,2.49-16.69,2.92-25.07,1-20.33,1.55-40.68,2.27-61,.33-9.17.88-18.34.9-27.51,0-6.26-.58-12.53-1.16-18.77a22.86,22.86,0,0,1,1.58-10.76c1.68-4.27,3.2-8.62,4.46-13,4.9-17.13,5.21-34.13-2.16-50.73-4.31-9.72-10.26-18.15-19.89-23.32a67.14,67.14,0,0,0-23.51-7.44,12.87,12.87,0,0,0-8.34,1.63,49.45,49.45,0,0,0-15.81,14.49c-9.28,12.89-18.19,26.06-27.16,39.19a38.09,38.09,0,0,0-4.69,8.39,24.5,24.5,0,0,1-6.17,9c-7.45,7.49-15.1,14.8-22.24,22.57S367.18,415.7,360.44,424c-2.17,2.68-3.44,6.1-5.06,9.21-1,2,0,3.22,1.74,4a9,9,0,0,0,2.65.69c2.73.28,5.51.24,8.2.74s6.15,1,7.08,4.19c.86,2.93-1.92,4.51-3.77,6.26-.44.42-1.1.63-1.48,1.08a26.33,26.33,0,0,0-1.69,2.74c3.66.26,6.67.46,9.68.69,4.26.31,6.32,3.94,4.33,7.74a8.46,8.46,0,0,1-1.94,2.53,8.69,8.69,0,0,0-3.07,5.82c-.8,5.2-3.89,7.71-9.23,7.71a30.36,30.36,0,0,1-7.65-1.21c-4.29-1.12-8.5-2.53-12.77-3.75-1.87-.54-3.81-1-6,.46.67.85,1.06,1.79,1.71,2.07,2.24.93,4.6,1.59,6.88,2.43,1.7.62,3.58,1,5,2.08,3.39,2.5,3.06,5.26-.75,6.87a14.94,14.94,0,0,1-4.88,1,39.38,39.38,0,0,1-18-3c-6.67-2.88-12.33-1.71-18,2.58a18.36,18.36,0,0,1-8.67,3.8c-8.66.86-17.39,1-26.1,1.38-1.93.08-2.85-1-2.28-3a58,58,0,0,1,2.15-7c3.63-8.43,7.44-16.78,11.12-25.19,1.22-2.8,2.65-5.6,3.22-8.55,1.08-5.52,1.37-11.18,2.39-16.71q4.83-26.19,10-52.3c.76-3.87,2.35-7.65-.85-11.22a6.54,6.54,0,0,1-.9-2.58c-1.71-6-3.57-12-5-18.12-1.39-5.8-2.46-11.68-3.47-17.56-.57-3.34-.2-3.61,3.42-4.14a4,4,0,0,1,.61,1.15c2.1,12.88,5.95,25.3,10.13,37.63a23.19,23.19,0,0,1,.58,12.47c-3.42,17.24-6.25,34.6-9.26,51.93a9.87,9.87,0,0,0,.19,2.46,43.26,43.26,0,0,0,5.35-8c13.29-22.56,26.54-45.13,39.93-67.62,9.22-15.49,21.55-28.55,33.46-41.89,6.2-6.95,12.95-13.41,19.43-20.12a6.13,6.13,0,0,0,.75-1.68A15.63,15.63,0,0,1,394,281.26c-.43-5.5-4.45-7.81-8.26-10.52-3.16,4.79-3.17,4.84-8.91,4a5.31,5.31,0,0,0-5.5,2.48c-1.1,1.53-2.29,2.88-4.44,2.75-2.85-.18-4.5,1.4-5.7,3.8-.45.91-1.3,2.34-2,2.33-4.15-.08-7.11,2.18-10.17,4.46-.64.48-1.78.36-2.69.34-1.95,0-3.66.39-4.71,2.23-1.14,2-3,2.26-5.08,2.47-1.38.14-3.46.7-3.87,1.66-1.14,2.66-3.09,3.06-5.49,3.23-3.42.25-6.27,1.37-7.26,5.17-.44,1.7-1.8,2.37-3.53,2.32-2.65-.08-4.15,1.26-5.22,3.65a4.42,4.42,0,0,1-2.94,2.31c-3,.34-5.14,1.35-6.75,4-1.27,2.1-2.75,1.94-4.36,0-.76-.93-1.38-2-2-2.9-6.17,1.41-8.42,4.11-7.75,9.95s1.77,11.79,2.73,17.68a5.57,5.57,0,0,0,.86,2.59c2.6,3.23,1.06,5.87-.9,8.62a49.56,49.56,0,0,1-23,17.62,98.05,98.05,0,0,0-26.24,14.93c-16.29,13.12-27.23,30.1-35.1,49.19-2.62,6.35-4.67,12.95-6.65,19.54-1.54,5.12-4.19,9-9,11.55a30.9,30.9,0,0,0-6.69,4.8c-6.84,6.34-13.78,12.61-20.22,19.35a194.76,194.76,0,0,0-23.54,30.5c-2.14,3.37-2.85,6.62-.6,10.29.9,1.46,1.08,3.35,1.5,4.73-.49.57-.56.75-.68.79-1,.33-2,.66-3,.94-6.42,1.76-10.35,5.72-11,12.51-.38,3.8-.48,7.65-1.14,11.4-.75,4.32-1.31,8.87-3.15,12.75-2.19,4.59-3.14,9.06-1.66,13.72A61.31,61.31,0,0,0,125.3,601c3.42,5.79,7.55,11.14,11.21,16.8,1.88,2.9,3.39,6,5,9a117.41,117.41,0,0,0-15.84,22.11c-12.85,22.92-16.11,48.3-18.36,73.79-1.23,13.86-.26,27.84,1.79,41.67,3.19,21.59,8.67,42.3,22.87,59.66a2.88,2.88,0,0,1,.37,3.74c-.8,1.3-1.58,2.62-2.36,3.94-11.53,19.31-23.14,38.57-34.55,57.94-16.24,27.59-30.68,56.14-45.18,84.66-13.14,25.86-23.52,52.83-33.91,79.82a31.77,31.77,0,0,0-.84,3.08h181c-.52-1.9-1.09-3.79-1.53-5.71-.35-1.56-.54-3.15-.9-5.27a26.22,26.22,0,0,1,3.64.8c10.66,4.31,21.51,7.93,32.95,9.49a6.86,6.86,0,0,1,1.67.69h56.05a7.3,7.3,0,0,1,2.13-.64c8.39.24,16.4-1.82,24.36-4.08,6.57-1.86,13.23-3.41,19.39-6.62,2.43-1.26,4-2.75,4.46-5.33,1.23-6.92,2.51-13.84,3.49-20.81.55-3.91-2.17-6-6-4.8a111.76,111.76,0,0,0-12.64,4.13c-13,5.66-26.67,7.94-40.59,9-21.2,1.65-42.26.52-62.68-5.88-8.58-2.68-16.82-6.48-25.24-9.68a4.37,4.37,0,0,1-3.2-4.42c-.2-5.65-.65-11.3-.81-17-.11-3.53.24-3.71,4-3.86,1,0,2.07-.2,3.82-.38-.75-2-1.3-3.64-2-5.22-2.26-5.22-4.26-10.44-4.16-16.31.13-8.23,4.28-14.13,10.36-19.06,1.79-1.45,3.37-.86,5,.29q5.43,3.84,10.92,7.61c1.22.83,2.52,1.54,4.76,2.89-5-22.93-9.26-44.9-8.5-67.65,12.17,15.93,27.54,28.3,42.36,41.23l.89-.54a10,10,0,0,0-.61-2.72c-7.45-13.76-13.24-28.27-18.84-42.82-6.6-17.13-12.51-34.52-18.63-51.84-1.88-5.32-1.25-7.29,3.89-9.53a137.21,137.21,0,0,1,19.77-7.3c29.16-7.64,58.41-14.91,87.62-22.35,2.72-.69,4.85-.51,7,1.81,15.79,17.22,34,31.72,52.55,45.79,8.78,6.65,17.62,13.23,26.45,19.82a15.25,15.25,0,0,1,5.05,6.87,86,86,0,0,0,7,13.87c11.21,17.35,22.68,34.54,34,51.8,5.9,8.95,11.69,18,15.68,28,4.6,11.5,11.35,21.65,19.05,31.24A302.46,302.46,0,0,0,527.9,1025c2.1,2,4.38,3.7,7.35,6.2.57-6.65-1.31-12-2.38-17.39s-2.36-10.61-2.77-16.4c.95,1.24,2,2.42,2.83,3.72q17.22,26.61,34.38,53.25a25,25,0,0,1,1.36,2.86H848V784.32C846.91,784.86,845.77,785.31,844.74,786ZM158,541.73c2.24,3.32.71,5.77-3.19,5.46a33.35,33.35,0,0,1-8-1.71c-2.87-1-3.9-3.16-2.87-5.75,3.29-8.28,7.41-16.09,13.6-22.63a26.86,26.86,0,0,1,2.59-2.13c-1.31,6.42-2.57,12.21-3.62,18A11.08,11.08,0,0,0,158,541.73Zm89.82-54.55c3.55-4.34,7.55-8.32,11.4-12.41a6.48,6.48,0,0,1,1.88-1.29c2.17-1,3.57-.12,3.45,2.36a24.89,24.89,0,0,1-.74,3.57c-.87,4.31-1.66,8.64-2.64,12.93-.25,1.07-.9,2.68-1.68,2.9a52,52,0,0,1-15.42,2.23C244.61,493.3,245.62,489.87,247.8,487.18Zm26.37,122.38c-1.82,1.57-3.94,3-5.25,4.94-8.49,12.55-16.79,25.22-25.12,37.86a20.29,20.29,0,0,0-1.18,2.56c3,3.77,3.22,7.87,2.62,12.52-1.33,10.4-.23,20.8,2.09,31,1.11,4.87,3.24,9.5,4.76,14.28a9.75,9.75,0,0,1,.49,4.36c-2.4,14.24-3.73,28.56-1.9,42.94,1.28,10,3.25,19.91,4.93,29.85.25,1.47.59,2.93,1,4.9l-7.29,1.8a12.6,12.6,0,0,1-1.15-2.37c-4.65-20.38-7.29-41-5.7-61.91a43.37,43.37,0,0,1,4.19-16.42c-5.56-16.15-9.85-32.62-8.5-50.1l-.89-.19a10,10,0,0,0-2.09,2c-5.85,10-11.54,20.17-17.48,30.16-3.36,5.65-7.09,11.08-10.67,16.6-.24.38-.55.87-.92,1-5,1.53-6.48,6.21-9.09,9.86-1.9,2.67-3.68,5.42-5.52,8.13-1.58-4.17-1.39-8.12-.92-12a287.35,287.35,0,0,0,1.65-37.1,70.41,70.41,0,0,1,1-11.4,22,22,0,0,1,2.15-5.44c.94-2.08,2-4.11,3-6.16q9.79-20,19.56-40a26.67,26.67,0,0,1,13.47-13c10.89-5.09,22-9.2,33.94-10.86,5.15-.72,10.34-.78,15.52,1.85A22.1,22.1,0,0,1,274.17,609.56Zm32.55,67.63-.83.35c-2.6-2.74-5.31-5.39-7.78-8.24-2.9-3.34-4.06-7.48-4.88-11.73-1.33-6.91-2.7-13.8-4-20.71-.28-1.43-.4-2.89-.74-5.45,1.9,1,3.18,1.2,3.77,2a37.12,37.12,0,0,1,4.46,6.9c4.89,10.62,7.71,21.91,10,33.33A18.58,18.58,0,0,1,306.72,677.19Z"/><path d="M848,766c-12.78,1.5-25.57,2.76-38.46,2.08-17.36-.92-34.41-3.58-50.62-10.13C737,749,721.56,733.36,711.74,712c-6.37-13.87-9.22-28.78-13.09-43.42-3.76-14.23-3-28.37-.13-42.3,1.83-9,5.84-17.69,9.52-26.23,15.36-35.61,43.55-55.77,80-65.77A119.91,119.91,0,0,1,819.82,530c8.55,0,17.09,1,25.63,1.6a9.79,9.79,0,0,1,2.55.92Z"/><path d="M381.23,1057.24c-4.85-4.88-9.58-9.89-14.58-14.61-6.89-6.52-10.32-14.71-11.81-23.79-.66-4,1-5.11,4.79-3.58,7.25,2.88,14.43,6,21.64,9a9.32,9.32,0,0,1,5.38,4.74q5.88,13.45,11.71,26.94a7.48,7.48,0,0,1,.32,1.34Z"/><path d="M699.53,205.43a44.84,44.84,0,0,1-4.62-3.1c-18.19-16.26-40.12-24.34-63.56-29-24.43-4.87-49-4.49-73.58-1.33-16.46,2.11-32.35,6.54-48.35,10.74-24.56,6.46-49.26,12.4-73.93,18.46-3.7.91-7.54,1.19-11.3,1.87-1.46.27-2.86.85-5.4,1.62,2.71,1.42,4.48,2.4,6.29,3.29,19.67,9.66,39.84,18.13,60.32,25.89,3.58,1.36,7.24,2.53,10.72,4.12,5.79,2.65,11.76,3.07,18,2.22a204.57,204.57,0,0,0,31.84-6.8,32.79,32.79,0,0,0,14.42-9.32c11.76-12.29,24-24.06,39.22-32.21,5.33-2.86,10.88-5.08,17.05-4.68a16.49,16.49,0,0,1,6.54,1.68C634.6,195,646,201.4,657.3,207.77a48,48,0,0,1,5,3.81c-2.94,1.87-4.92,1.6-6.74.8-4.84-2.16-9.87-2-14.89-1.25a247.81,247.81,0,0,0-74.17,23.27c-3.16,1.56-6.19,3.36-9.33,4.95a33.17,33.17,0,0,1-17.3,3.7c-4.28-.26-8.57-.36-12.84-.68a34.82,34.82,0,0,0-19.1,3.83,62.91,62.91,0,0,1-18,6.61c-5.85,1-11.49.69-17-2-10.43-5.15-21.1-9.81-31.45-15.1-9.26-4.73-18.35-9.83-27.27-15.16-3.75-2.25-6.89-5.52-10.3-8.33-.47-.39-.81-1-1.33-1.27-6.39-3.47-8.3-10-10.4-16.11-1.1-3.23-2.38-6.05-4.9-7.94a10.31,10.31,0,0,0-2.45-1.37c-1.73-.69-2.42-2.1-2.91-3.83a29.18,29.18,0,0,0-1.45-4,38.05,38.05,0,0,0-6-9.12c-4.11-4.78-8.58-5.89-14.4-3.66a15.18,15.18,0,0,0-4.15,1.94c-3.29,2.6-6.73,2.61-10.73,1.89-12.33-2.22-24.68-4.52-37.12-5.88a152.49,152.49,0,0,0-57.78,4.54,76.88,76.88,0,0,0-26.41,13.46c-4.17,3.22-7.58,6.84-5.82,12.71-3.71.76-5.31,0-5.85-3.09a16.36,16.36,0,0,1-.2-5.83,8.21,8.21,0,0,1,1.23-3.09c1.63-2.46,1.7-5.14,1.71-7.93,0-10.87-.15-21.75.25-32.6a182.56,182.56,0,0,1,2.18-20c2.07-13.73,15.19-28.88,33.53-30.58,6.2-.58,12.17.21,18.23.47A7.52,7.52,0,0,1,274,93c4,4.55,7.67,9.41,11.36,14h0c-.5.57-.68,1-.88,1-7.93.33-16-.13-23.76,1.14-7.3,1.2-14.45,3.87-21.4,6.56-4.21,1.64-8,4.39-11.83,7-3.35,2.27-3.35,3.67-1.08,7.24l11.93-5.39,1.68-3.79c2.54,2.6,2.73,4.41,1.23,7.56-.91,1.93-2.14,2.46-4.39,2.11A7.54,7.54,0,0,0,228,137c-.5,3.56-.05,7.28.24,10.91.13,1.49,1.34,2.25,3,2.09,3.85-.37,7.31-3.78,7.33-7.59a4.3,4.3,0,0,0-1-2.87,3.65,3.65,0,0,0-2.84-.79c-.6.12-1.25,1.28-1.41,2.07a34.07,34.07,0,0,0-.27,4.51,5,5,0,0,1-2.61-7.05c1.34-2.83,3.79-4.19,6.19-3.44,3.65,1.14,6.21,4.31,5.47,7.44a15.4,15.4,0,0,1-2.86,6.14,37,37,0,0,1-6.43,5.8c-3,2.29-3.3,7.91-.22,10.23a3.3,3.3,0,0,0,2.54.38,21.35,21.35,0,0,0,3.72-1.76,79.24,79.24,0,0,1,22.8-8.19c4.64-.8,9.18-2.25,13.82-3.08a75.59,75.59,0,0,1,8.67-.6c4.84-.33,5.81-1.15,6.22-6,.8-9.27,1.45-18.55,2.23-28.62l0,0c2.78,3.26,5.24,6.25,7.81,9.12s4.41,6.09,8.34,8.9c.25-10.26-3.87-18.88-5.16-28.57a22.34,22.34,0,0,1,3.13,1.27c9.88,6.13,19.78,12.25,29.58,18.52a13.66,13.66,0,0,1,4.1,4.19c2.83,4.54,5.36,9.26,8,13.9a19.19,19.19,0,0,0,3.22,4.35c2.33-8.25-.21-16.39.26-24.67,2.06-.15,2.62,1.54,3.44,2.61q19.35,25.1,38.64,50.24a19.42,19.42,0,0,0,3,3.21,9.65,9.65,0,0,0,.81.62c2.37,1.65,4.2,3.64,4.84,6.44.71,3.15,2.7,4.51,5.7,5.12a43.48,43.48,0,0,0,22.22-1,97.66,97.66,0,0,0,12.75-5.15c34.48-16.61,70.13-29.85,107.66-37.65a290.7,290.7,0,0,1,50.5-6.31c17.07-.52,34,.62,50.55,4.79,6.51,1.64,12.85,4,19.27,6a11,11,0,0,1,5.87,4.87c5.51,8.28,11.25,16.4,16.55,24.81C698,189,699.78,196.45,699.53,205.43Z"/></g></g></svg>