<svg id="Camada_5" data-name="Camada 5" xmlns="http://www.w3.org/2000/svg" viewBox="0 0 121.78 110.22"><defs><style>.cls-1{fill:#232323;}.cls-2{fill:#fc8524;}</style></defs><path class="cls-1" d="M17.15,76.2a9.13,9.13,0,0,1,9.3,11.85A9.85,9.85,0,0,1,16.21,95a9.84,9.84,0,0,1-9.51-8c-.76-4.17,2.52-8.93,7-10.05C15.05,76.54,16.45,76.33,17.15,76.2Z"/><path class="cls-2" d="M49.92,63.7c0-.68,0-1.29.07-1.89.09-.92.76-1.16,3.06-1s4.71.33,7.07.47a16.49,16.49,0,0,0,2.11,0c1.62-.13,2.83.23,2.77.88s-.2,1.4-.31,2.12c.34,0,.58,0,.82,0L95.28,65l4.83.09c1.29,0,2.33.32,2.41.82a14.62,14.62,0,0,1,.06,3c0,.38-.74.54-1.69.58-5.25.21-10.54.18-15.85,0l-19.15-.6c-1.65,0-1.54-.15-1.69.6a9.44,9.44,0,0,1-.6,1.63c-.13.33-.51.45-1.52.43-1.5,0-3,.13-4.49.12s-3.28-.1-4.88-.26c-2.11-.2-3-.67-3.23-1.51a2.79,2.79,0,0,1-.08-1.11c.05-.29-.23-.36-.91-.38-4.3-.11.64,2.9-3.66,2.78-2-.06.83-3.08.59-3.85-.33-1.1-2.92-.71-2.52-1.78.27-.71,4.12-2.34,5.93-2.22C53.45,63.62,45.07,63.41,49.92,63.7Z"/><path class="cls-2" d="M29.27,92.15l-.15-.68q5.39-11.65,10.79-23.31A554.94,554.94,0,0,1,65.7,18.53a6.76,6.76,0,0,1,4.74-3.36,17.16,17.16,0,0,1,8,0,3.85,3.85,0,0,1,2.66,2.09C85,25.39,89,33.51,92.87,41.68q9.21,19.53,18.23,39.1c1.39,3,2.61,6,3.84,9.1.84,2.12-.54,3.84-3.09,3.84-3.86,0-7.73-.14-11.57-.43-1.91-.15-4-.57-4.24-2.82,0-.17-.19-.33-.31-.49C87.26,77.8,80.19,65,73.41,52.06c-.25-.47-.52-.93-1-1.7-.28.72-.48,1.16-.62,1.62-3.32,10.34-7,20.58-12.33,30.27-1.85,3.33-4,6.53-6,9.78-.21.34-.56.64-.64,1-.48,2.25-2.23,2.59-4.47,2.51-3.94-.14-7.9-.06-11.84-.28a16.55,16.55,0,0,1-4.91-1.18A9.1,9.1,0,0,1,29.27,92.15Z"/></svg>