<svg id="Camada_4" data-name="Camada 4" xmlns="http://www.w3.org/2000/svg" viewBox="0 0 121.78 110.22"><defs><style>.cls-1{fill:#232323;}.cls-2{fill:#fc8524;}</style></defs><path class="cls-1" d="M22.55,77.05a9.12,9.12,0,0,1,9.3,11.85,9.84,9.84,0,0,1-10.23,6.92,9.82,9.82,0,0,1-9.51-8c-.76-4.17,2.52-8.92,7-10C20.46,77.39,21.86,77.19,22.55,77.05Z"/><path class="cls-2" d="M40.09,95.41c1.06-27.25,5.28-54.14,6.57-81.36l17.59.18c19.64,25.25,33,52.53,48.27,80.4l-15.68.17C91.62,85.94,89.4,81.62,84.8,73q-15.92.15-31.82.38c-1,8.75-1.34,13.15-1.77,21.92ZM54.32,62.53c9.91-.1,14.83-.14,24.6-.21-6.22-11-12.7-21.81-20.31-31.9C57.92,41.15,55.85,51.89,54.32,62.53Z"/></svg>