<svg xmlns="http://www.w3.org/2000/svg" xmlns:xlink="http://www.w3.org/1999/xlink" viewBox="0 0 737.93 218.67"><defs><style>.cls-1{fill:url(#Gradiente_sem_nome_115);}.cls-2{fill:url(#Gradiente_sem_nome_691);}.cls-3{fill:url(#Gradiente_sem_nome_690);}.cls-4{fill:url(#Gradiente_sem_nome_690-2);}.cls-5{fill:url(#Gradiente_sem_nome_690-3);}.cls-6{fill:url(#Gradiente_sem_nome_690-4);}.cls-7{fill:url(#Gradiente_sem_nome_690-5);}</style><radialGradient id="Gradiente_sem_nome_115" cx="55.96" cy="166.34" r="30.35" gradientUnits="userSpaceOnUse"><stop offset="0" stop-color="#232323"/><stop offset="0.04" stop-color="#222"/><stop offset="0.43" stop-color="#191919"/><stop offset="1" stop-color="#161616"/></radialGradient><linearGradient id="Gradiente_sem_nome_691" x1="109.87" y1="47.29" x2="203.73" y2="209.86" gradientUnits="userSpaceOnUse"><stop offset="0" stop-color="#fc742a"/><stop offset="0.06" stop-color="#fc762a"/><stop offset="0.44" stop-color="#fc7f2a"/><stop offset="1" stop-color="#fc822a"/></linearGradient><linearGradient id="Gradiente_sem_nome_690" x1="265.01" y1="69.48" x2="338.6" y2="196.95" gradientUnits="userSpaceOnUse"><stop offset="0" stop-color="#fc822a"/><stop offset="0.12" stop-color="#fc822a"/><stop offset="1" stop-color="#fc822a"/></linearGradient><linearGradient id="Gradiente_sem_nome_690-2" x1="353.57" y1="83.39" x2="411.1" y2="183.04" xlink:href="#Gradiente_sem_nome_690"/><linearGradient id="Gradiente_sem_nome_690-3" x1="433.02" y1="65.42" x2="511.3" y2="201.01" xlink:href="#Gradiente_sem_nome_690"/><linearGradient id="Gradiente_sem_nome_690-4" x1="547.3" y1="74.77" x2="615.25" y2="192.47" xlink:href="#Gradiente_sem_nome_690"/><linearGradient id="Gradiente_sem_nome_690-5" x1="641.33" y1="81.32" x2="702.02" y2="186.43" xlink:href="#Gradiente_sem_nome_690"/></defs><g id="Camada_6" data-name="Camada 6"><g id="Logo_com_gradiente" data-name="Logo com gradiente"><path class="cls-1" d="M68.24,140.52a37.68,37.68,0,0,0-19.68,3.86c-12.24,6.26-17.56,21-11.18,31.3,4.79,7.77,15.73,11.3,25.79,8.33,9.23-2.73,15.37-11.48,14-19.92-1.2-7.21-8.94-12.39-17.47-11.7-8.21.68-14.71,7.13-14.39,14.29.22,4.91,4.66,8.84,10.2,9s10.32-3.3,11-8.2a4.81,4.81,0,0,0-4.29-5.65c-3-.43-5.21,1.09-6,4.33l4.79.29a4.88,4.88,0,0,1-5.49,4.58,5,5,0,0,1-4.9-5.26c.19-4.88,5-8.83,10.73-8.84S71.7,160.78,72,165.82c.51,7.86-6.85,14.61-16,14.66S39.54,173.92,39.83,166c.43-12,11.79-21.35,25.17-20.74,13.93.64,24.21,10.87,23.14,23-1.21,13.87-13.21,24.82-28.76,26.25-15.23,1.4-30-7-34.19-19.46-4.69-13.91,2-27.83,16.6-34.1A33.82,33.82,0,0,1,68.24,140.52Z"/><path class="cls-2" d="M186.64,24,139.43,192H102.68L150.16,24ZM139.16,163.58V137.5h68.67v26.08ZM187.18,24l47.48,168H198.18L150.7,24Z"/><path class="cls-3" d="M256.46,192V74.42h26.47V192Zm57.83,0L261,74.42h23.09L337.39,192Zm6.38,0V74.42h26.48V192Z"/><path class="cls-4" d="M369.1,192V74.42h26.47V192Z"/><path class="cls-5" d="M417.43,192V74.42H443.9V192Zm44.31,0L432.45,74.42h20.09L481.83,192Zm.75,0L491.78,74.42h20.09L482.58,192Zm37.93,0V74.42h26.47V192Z"/><path class="cls-6" d="M547.9,74.42h26.48V192H547.9Zm19,117.59V173.92h49.2V192Zm.94-49.5V124.09h37v18.42Zm.94-68.09h45.44V92.51H568.74Z"/><path class="cls-7" d="M653.57,156q.75,9.7,5.73,15a17,17,0,0,0,13.05,5.35v18.25q-18.21,0-29.48-9.21t-13.14-25.65Zm-22.15-53.78a24.41,24.41,0,0,1,5.44-15.79,37.11,37.11,0,0,1,14.93-10.69,55.53,55.53,0,0,1,21.5-3.94V90q-7.14,0-11.27,3.21a10.72,10.72,0,0,0-4.13,9Zm56.14,62a13.43,13.43,0,0,0-4-9.71,47.34,47.34,0,0,0-10.42-7.73q-6.39-3.61-13.61-7.48a96,96,0,0,1-13.61-8.8,41,41,0,0,1-10.43-11.84q-4-6.9-4-16.61h26.47a13.43,13.43,0,0,0,4,9.62,45.17,45.17,0,0,0,10.42,7.81q6.38,3.63,13.61,7.48a92.29,92.29,0,0,1,13.61,8.89,43.8,43.8,0,0,1,10.52,11.84q4.13,6.83,4.13,16.53Zm26.66,0a24.51,24.51,0,0,1-5.44,15.7,36.67,36.67,0,0,1-14.93,10.77,55.34,55.34,0,0,1-21.5,3.95V176.39q7.13,0,11.17-3.21a10.81,10.81,0,0,0,4-9Zm-27-60.85q-.95-6.59-4.69-10a13.32,13.32,0,0,0-9.2-3.37V71.79a45,45,0,0,1,17.84,3.37,33.24,33.24,0,0,1,13,9.62,31.77,31.77,0,0,1,6.57,14.8Z"/></g></g></svg>