<svg xmlns="http://www.w3.org/2000/svg" xmlns:xlink="http://www.w3.org/1999/xlink" viewBox="0 0 737.93 218.67"><defs><style>.cls-1{fill:url(#Gradiente_sem_nome_665);}.cls-2{fill:url(#Gradiente_sem_nome_534);}.cls-3{fill:url(#Gradiente_sem_nome_691);}.cls-4{fill:url(#Gradiente_sem_nome_690);}.cls-5{fill:url(#Gradiente_sem_nome_690-2);}.cls-6{fill:url(#Gradiente_sem_nome_690-3);}.cls-7{fill:url(#Gradiente_sem_nome_690-4);}.cls-8{fill:url(#Gradiente_sem_nome_690-5);}</style><radialGradient id="Gradiente_sem_nome_665" cx="124.66" cy="109.33" r="92.6" gradientTransform="translate(0 -12.03) scale(1 1.11)" gradientUnits="userSpaceOnUse"><stop offset="0" stop-color="#fc8524"/><stop offset="0.58" stop-color="#fb8324"/><stop offset="0.79" stop-color="#f87c24"/><stop offset="0.94" stop-color="#f37124"/><stop offset="0.98" stop-color="#f16b24"/></radialGradient><linearGradient id="Gradiente_sem_nome_534" x1="299.85" y1="154.41" x2="325.29" y2="154.41" gradientUnits="userSpaceOnUse"><stop offset="0.01" stop-color="#232323"/><stop offset="0.73" stop-color="#232326"/><stop offset="1" stop-color="#23232a"/></linearGradient><linearGradient id="Gradiente_sem_nome_691" x1="344.49" y1="67.09" x2="406.24" y2="174.04" gradientUnits="userSpaceOnUse"><stop offset="0" stop-color="#fc742a"/><stop offset="0.06" stop-color="#fc762a"/><stop offset="0.44" stop-color="#fc7f2a"/><stop offset="1" stop-color="#fc822a"/></linearGradient><linearGradient id="Gradiente_sem_nome_690" x1="437.37" y1="83.95" x2="485.26" y2="166.91" gradientUnits="userSpaceOnUse"><stop offset="0" stop-color="#fc822a"/><stop offset="0.12" stop-color="#fc822a"/><stop offset="1" stop-color="#fc822a"/></linearGradient><linearGradient id="Gradiente_sem_nome_690-2" x1="489.86" y1="92.19" x2="528.24" y2="158.67" xlink:href="#Gradiente_sem_nome_690"/><linearGradient id="Gradiente_sem_nome_690-3" x1="536.96" y1="81.54" x2="587.64" y2="169.32" xlink:href="#Gradiente_sem_nome_690"/><linearGradient id="Gradiente_sem_nome_690-4" x1="604.7" y1="87.08" x2="649.26" y2="164.26" xlink:href="#Gradiente_sem_nome_690"/><linearGradient id="Gradiente_sem_nome_690-5" x1="660.59" y1="91.16" x2="700.6" y2="160.45" xlink:href="#Gradiente_sem_nome_690"/></defs><g id="Favicon_Gradiente" data-name="Favicon Gradiente"><g id="Logo_com_gradiente" data-name="Logo com gradiente"><path class="cls-1" d="M159.87,24.81c-20.1-1.3-38.86,2.38-56.43,12.64C68.33,58,53.07,106.09,71.36,139.94c13.75,25.43,45.13,37,74,27.27,26.49-8.93,44.08-37.58,40.06-65.22C182,78.37,159.76,61.39,135.3,63.68,111.74,65.88,93.09,87,94,110.46a30.57,30.57,0,0,0,60.9,2.69c1.22-9.46-3.87-17.1-12.3-18.5-8.62-1.42-14.95,3.56-17.23,14.18l13.73.93c-.92,9.81-7.1,15.6-15.73,15S109,117,109.33,107.54c.56-16,14.31-28.91,30.77-28.94a30.46,30.46,0,0,1,30.64,29c1.46,25.77-19.65,47.86-45.89,48a46.24,46.24,0,0,1-46.46-47.58c1.24-39.29,33.82-69.94,72.2-67.94C190.54,42.24,220,75.74,217,115.57c-3.49,45.42-37.91,81.28-82.49,86-43.7,4.58-86-22.92-98.08-63.73C23,92.27,42.13,46.66,84,26.16,108.86,14,134.34,13.43,159.87,24.81Z"/><path class="cls-2" d="M312.41,167.13a12.22,12.22,0,0,1-12.56-12.56,12.74,12.74,0,0,1,3.57-9.14,11.94,11.94,0,0,1,9-3.74,12.77,12.77,0,0,1,12.88,12.88,11.91,11.91,0,0,1-3.74,9A12.7,12.7,0,0,1,312.41,167.13Z"/><path class="cls-3" d="M393.05,51.54l-28,113.68H343.28L371.43,51.54ZM364.91,146V128.33h40.7V146Zm28.46-94.44,28.14,113.68H399.89L371.74,51.54Z"/><path class="cls-4" d="M434.44,165.22V85.64h15.69v79.58Zm34.28,0L437.11,85.64H450.8l31.61,79.58Zm3.78,0V85.64h15.69v79.58Z"/><path class="cls-5" d="M501.2,165.22V85.64h15.7v79.58Z"/><path class="cls-6" d="M529.85,165.22V85.64h15.7v79.58Zm26.27,0L538.76,85.64h11.91L568,165.22Zm.44,0,17.37-79.58h11.91l-17.37,79.58Zm22.49,0V85.64h15.69v79.58Z"/><path class="cls-7" d="M607.19,85.64h15.7v79.58h-15.7Zm11.24,79.58V153h29.16v12.24Zm.56-33.5V119.25h21.93v12.47Zm.56-46.08h26.93V97.88H619.55Z"/><path class="cls-8" d="M669.83,140.85q.45,6.57,3.4,10.18a9.49,9.49,0,0,0,7.73,3.62V167q-10.8,0-17.47-6.23t-7.79-17.36Zm-13.13-36.4a18,18,0,0,1,3.23-10.68,22.31,22.31,0,0,1,8.84-7.24,29.38,29.38,0,0,1,12.75-2.67V96.22a9.69,9.69,0,0,0-6.68,2.17,7.68,7.68,0,0,0-2.45,6.06Zm33.28,42a9.71,9.71,0,0,0-2.4-6.56,28.44,28.44,0,0,0-6.17-5.24q-3.79-2.45-8.07-5.06a57.09,57.09,0,0,1-8.07-6,26.94,26.94,0,0,1-6.18-8,24.32,24.32,0,0,1-2.39-11.24h15.69a9.83,9.83,0,0,0,2.39,6.51,27.8,27.8,0,0,0,6.18,5.29q3.78,2.44,8.07,5.06a55.25,55.25,0,0,1,8.07,6,28.88,28.88,0,0,1,6.23,8,23.61,23.61,0,0,1,2.45,11.18Zm15.8,0A18.11,18.11,0,0,1,702.55,157a22.05,22.05,0,0,1-8.85,7.29A29.3,29.3,0,0,1,681,167V154.65a9.51,9.51,0,0,0,6.62-2.17,7.77,7.77,0,0,0,2.4-6.07Zm-16-41.18A11.39,11.39,0,0,0,687,98.5a7.32,7.32,0,0,0-5.45-2.28V83.86a23.81,23.81,0,0,1,10.57,2.28,20,20,0,0,1,7.68,6.51,23.21,23.21,0,0,1,3.9,10Z"/></g></g></svg>