<svg id="Camada_1" data-name="Camada 1" xmlns="http://www.w3.org/2000/svg" viewBox="0 0 140 102.67"><defs><style>.cls-1{fill:#232323;}.cls-2{fill:#fc8524;}</style></defs><path class="cls-1" d="M16.55,76a9.12,9.12,0,0,1,9.3,11.84,9.85,9.85,0,0,1-10.24,6.93,9.85,9.85,0,0,1-9.51-8c-.76-4.17,2.52-8.93,7-10C14.45,76.34,15.85,76.13,16.55,76Z"/><path class="cls-2" d="M53.74,27.22c2.3,0,4.33,0,6.37,0,3.1.08,4,.95,3.82,4s-.58,6.21-.81,9.32a8.37,8.37,0,0,0,.25,2.78c.61,2.13-.46,3.75-2.66,3.7-2.36-.05-4.73-.21-7.16-.32a10.06,10.06,0,0,0-.1,1.08q.46,19.61.94,39.22c0,2.13.16,4.25.21,6.37,0,1.7-.81,3.09-2.5,3.21-3.38.25-6.79.23-10.19.21-1.3,0-1.91-1-2.14-2.2A115,115,0,0,1,38,73.71c0-8.41,0-16.83,0-25.24,0-2.17.35-2-2.2-2.2-1.86-.12-3.7-.45-5.55-.72-1.13-.16-1.59-.65-1.62-2,0-2-.77-3.92-.87-5.9a30.15,30.15,0,0,1,.32-6.44c.46-2.79,1.95-4,4.73-4.32a24.63,24.63,0,0,1,3.74-.15c1,.05,1.19-.32,1.18-1.22-.1-5.66-.16-11.33-.23-17,0-2.63.83-3.63,3.42-4a41.89,41.89,0,0,1,11,0c2.4.32,3.35,1.62,3.17,4C54.58,14.72,54.18,20.82,53.74,27.22Z"/><path class="cls-2" d="M134,30.29l.12.59c-2.71,6.83-5.39,13.66-8.12,20.48C120.05,66.16,113.8,80.8,106.53,95a5.27,5.27,0,0,1-3.62,3,11.62,11.62,0,0,1-6.14.09,3.07,3.07,0,0,1-2.06-1.81C91.63,89.16,88.5,82.1,85.47,75Q78.26,58,71.16,41c-1.09-2.61-2-5.27-3-7.92a2.37,2.37,0,0,1,2.34-3.39c3,0,5.94.06,8.89.28,1.47.11,3,.46,3.28,2.42a1.19,1.19,0,0,0,.24.44,316.29,316.29,0,0,1,17.45,33c.19.41.41.8.75,1.47.21-.63.36-1,.47-1.41,2.46-9.08,5.19-18.07,9.24-26.59,1.39-2.92,3-5.74,4.54-8.6a4,4,0,0,0,.48-.87c.35-2,1.69-2.29,3.41-2.24,3,.09,6.08,0,9.1.15a11.17,11.17,0,0,1,3.79,1A7.47,7.47,0,0,1,134,30.29Z"/></svg>