<svg id="Favicon" xmlns="http://www.w3.org/2000/svg" xmlns:xlink="http://www.w3.org/1999/xlink" viewBox="0 0 218.67 218.67"><defs><style>.cls-1{fill:url(#Gradiente_sem_nome_665);}</style><radialGradient id="Gradiente_sem_nome_665" cx="109.33" cy="109.33" r="99.96" gradientTransform="translate(0 -12.03) scale(1 1.11)" gradientUnits="userSpaceOnUse"><stop offset="0" stop-color="#fc8524"/><stop offset="0.58" stop-color="#fb8324"/><stop offset="0.79" stop-color="#f87c24"/><stop offset="0.94" stop-color="#f37124"/><stop offset="0.98" stop-color="#f16b24"/></radialGradient></defs><path id="favicon_gradiente" data-name="favicon gradiente" class="cls-1" d="M147.33,18.09c-21.69-1.4-41.94,2.57-60.91,13.64-37.9,22.13-54.37,74.1-34.62,110.64,14.84,27.46,48.72,39.95,79.84,29.44,28.6-9.64,47.59-40.57,43.25-70.41-3.71-25.49-27.67-43.82-54.07-41.35-25.43,2.38-45.56,25.19-44.56,50.49A33,33,0,0,0,142,113.45c1.31-10.21-4.18-18.46-13.28-20-9.3-1.53-16.14,3.85-18.6,15.31l14.82,1c-1,10.59-7.66,16.83-17,16.18s-15.55-8.36-15.19-18.59c.61-17.24,15.45-31.2,33.22-31.24a32.89,32.89,0,0,1,33.07,31.34c1.58,27.82-21.2,51.67-49.54,51.86A49.91,49.91,0,0,1,59.38,108c1.35-42.42,36.51-75.5,77.94-73.34,43.13,2.26,75,38.42,71.65,81.42-3.78,49-40.93,87.74-89,92.78-47.17,5-92.86-24.74-105.87-68.79C-.47,90.91,20.24,41.68,65.46,19.55,92.27,6.43,119.78,5.81,147.33,18.09Z"/></svg>