<svg xmlns="http://www.w3.org/2000/svg" viewBox="0 0 411.56 110.22"><defs><style>.cls-1{fill:#232323;}.cls-2{fill:#fc8524;}</style></defs><g id="Camada_4" data-name="Camada 4"><path class="cls-1" d="M19.66,77.05A9.13,9.13,0,0,1,29,88.9a9.85,9.85,0,0,1-10.24,6.92,9.82,9.82,0,0,1-9.51-8c-.76-4.17,2.52-8.92,7-10C17.57,77.39,19,77.19,19.66,77.05Z"/><path class="cls-2" d="M34.86,95.41c2.87-27.36,9.39-54,12.62-81.29l20.83.21c21.29,24.9,35.56,52.3,52.31,80.16l-18.56.2C96.33,85.82,93.94,81.51,89,72.9q-18.78.16-37.57.42c-1.69,8.76-2.34,13.16-3.36,22ZM53.6,62.48q14.52-.13,29-.22c-6.74-11-13.79-21.83-22-31.8C58.61,41.26,56.06,51.79,53.6,62.48Z"/><path class="cls-2" d="M124.92,94.45c-3.32-15.59-3.55-31.47-4.76-47.29l15.05.08c.18,3.46.23,5.19.31,8.65a21.9,21.9,0,0,1,8.68-7.46,23.54,23.54,0,0,1,9.86-2.12,18.19,18.19,0,0,1,11.17,3.54c3,2.32,4.36,5.95,4.1,10.92A172.49,172.49,0,0,0,171.08,94l-13.85.13c-2.28-9.62-2.79-20.48-2.36-30.33,0-2.51-.17-4.2-.68-5.09a5.07,5.07,0,0,0-2.17-2A6.91,6.91,0,0,0,148.9,56a13.56,13.56,0,0,0-6.28,1.67c-2.16,1.12-4.5,3.33-6.92,6.64,0,9.85.79,20.42,3.06,30Z"/><path class="cls-2" d="M183.09,39.92a77.76,77.76,0,0,0-.7-10.37l15.35.16a80,80,0,0,1,.33,10.35Zm.14,53.94c-2.15-15.86-1.5-30.38-.33-46.29l14.72.11c-1.64,15.89-2.56,30.15-.54,46Z"/><path class="cls-2" d="M209.8,93.6c-1.91-15.93-.75-30,1.31-45.81l14.08.11c-.49,3.38-.77,5.06-1.31,8.42a27.87,27.87,0,0,1,8.33-6.69A23.66,23.66,0,0,1,243.73,47a19.83,19.83,0,0,1,6.72,1A10.68,10.68,0,0,1,255,51.22a7.82,7.82,0,0,1,1.75,5.28,35.83,35.83,0,0,1,9.8-7.13,25,25,0,0,1,10.73-2.13c4.46,0,7.83,1.1,10.06,3.21S290,56,288.85,60.63A121.21,121.21,0,0,0,286,92.85L272.7,93c-1.62-9-.8-19.68,1.31-28.51.68-3.3.56-5.43-.51-6.4a5.75,5.75,0,0,0-4-1.47,14.54,14.54,0,0,0-6.91,1.92,30.53,30.53,0,0,0-7.43,5.79c-1.9,9-2.43,19.8-.63,28.85l-13.29.13c-1.87-9.06-1.55-19.83.15-28.89.55-3.3.34-5.44-.73-6.44a6,6,0,0,0-4.24-1.53,13.54,13.54,0,0,0-6.65,1.91,28.5,28.5,0,0,0-7.08,5.86c-1.47,9.25-1.58,20.09.39,29.27Z"/><path class="cls-2" d="M340.1,90.82a78.77,78.77,0,0,1-18.81,2.72,36.54,36.54,0,0,1-14.71-2.61,19.45,19.45,0,0,1-9.77-8.48A18.57,18.57,0,0,1,294.71,70a23.74,23.74,0,0,1,5.71-11.39,31.31,31.31,0,0,1,11.22-8.24,37.46,37.46,0,0,1,15.43-3c7.1,0,12.26,1.79,15.38,5.34S345.1,62.9,343,72.6l-33.45.1A10.41,10.41,0,0,0,316,83.82a20.37,20.37,0,0,0,8.72,1.48,59.79,59.79,0,0,0,16.49-2.89C340.64,85.76,340.42,87.44,340.1,90.82ZM310.68,66,330,66c1.14-4,1.19-6.89,0-8.62s-3.06-2.59-5.72-2.59a12.48,12.48,0,0,0-7.94,2.86A18.93,18.93,0,0,0,310.68,66Z"/><path class="cls-2" d="M348.78,90.83c.47-3.52.76-5.27,1.42-8.75,6.71,2.41,12.5,3.6,17.55,3.56a15.31,15.31,0,0,0,6.82-1.45A6.17,6.17,0,0,0,378,80.61a2.77,2.77,0,0,0-.93-3.14,16.14,16.14,0,0,0-5-2.4l-4.62-1.56c-4.78-1.61-8.18-3.43-10.17-5.39s-2.36-4.51-1.33-7.67q1.83-5.7,8.82-9.43c4.66-2.49,11-3.75,18.94-3.81a101.22,101.22,0,0,1,16.2,1.42L397,56.91a53.72,53.72,0,0,0-14.57-2.34,19.14,19.14,0,0,0-7.6,1.3,6,6,0,0,0-3.48,3.26,2.55,2.55,0,0,0,.63,2.74,11.58,11.58,0,0,0,4.68,2.32l4,1.28c6.61,2.1,10.8,4.14,12.34,6.14s1.76,4.47.75,7.32c-1.31,3.7-4.46,7-9.18,9.79S374.11,93,367,93.07A70.74,70.74,0,0,1,348.78,90.83Z"/></g><g id="Camada_5" data-name="Camada 5"><path class="cls-2" d="M185.38,41.44a4.64,4.64,0,0,1-.72-.23,7.12,7.12,0,0,1-2.27-1.27c-.33-.5-2.5-7.93-.81-10.38,1.36-2,6.16-2.34,7.42-2.26s7.9.16,9.63,1.87c1.35,1.34,2.37,4.31,2.7,6.31a9.71,9.71,0,0,1-.52,4.93,5.29,5.29,0,0,1-1.62,1.13,5.51,5.51,0,0,1-2.54.84,44.57,44.57,0,0,1-6.28.06A43.07,43.07,0,0,1,185.38,41.44Z"/><path class="cls-2" d="M35.7,87.63l-.94,7.65c-.2.91.11.86.74,1l1.54.23.26,0c.76.06,2.27.3,5.26.4.67,0,3.76-.06,4.29-.08a.68.68,0,0,0,.25,0l.57-.15a.78.78,0,0,0,.58-.71l.27-5.44.33-10.3L44.52,78,37.3,79.89Z"/><path class="cls-2" d="M47.17,16.69s0-3.88.47-4.77c.52-.72,3-1.22,4.43-1.45a10,10,0,0,1,1.74-.12l3.75-.09c.87.07,1.48.1,1.63.11l2.61.24a6.57,6.57,0,0,1,1.16.21l.29.07c1.47.36,4,2.48,4.9,3.29a5.68,5.68,0,0,1,.63.67l1.11,1.43-1.83,2.83L56.31,21.94S50.22,20,50.08,19.86,47.17,16.69,47.17,16.69Z"/><path class="cls-2" d="M56,62.74s-3-.11-3.19-1.18-2.15.25-2.15.25.26,2.78.67,3.12,5.3,0,5.3,0Z"/><path class="cls-2" d="M78.41,62.37s3.92.74,3.81-.63a7,7,0,0,0-1.33-3L84,57.11s5.3,1.82,5.37,2S91,63.15,91.07,63.7a51.93,51.93,0,0,1-1.55,5.71S79.37,66.15,79.37,66,78.41,62.37,78.41,62.37Z"/><path class="cls-2" d="M60,33.43s.22-1,.32-1.59c.1-1,.65-.51,1-.15.14.12,1,.92,1,1s.6.62.6.62.52,0,.66-.19a2.58,2.58,0,0,0,.2-1.27c-.09-.22-.62-1.37-.64-1.39a18.36,18.36,0,0,0-1.41-2.58,25.22,25.22,0,0,0-2,1.74c0,.05-.12,1.07-.12,1.07l-.16,2.87Z"/><path class="cls-2" d="M100.49,92.24a11.59,11.59,0,0,0,1.59,2.59,13.41,13.41,0,0,0,2.56.16l7,0,7.71,0,1.31,0,.4-.27s-2-2.74-2.12-2.92a6.81,6.81,0,0,0-1.94-.77c-.46-.07-6.74-.32-6.74-.32l-8.12,1.88Z"/></g></svg>