<svg id="Camada_4" data-name="Camada 4" xmlns="http://www.w3.org/2000/svg" viewBox="0 0 496 450"><defs><style>.cls-1,.cls-5{opacity:0.2;}.cls-2,.cls-3,.cls-5{fill:#fe3b17;}.cls-3{opacity:0.9;}.cls-3,.cls-5{isolation:isolate;}.cls-4{fill:#fff;}.cls-6{fill:#ff4200;}</style></defs><g id="freepik--background-simple--inject-18" class="cls-1"><path class="cls-2" d="M209.38,67.12C105.72,62.6,77.83,164.2,140.54,223.32c61.77,57.42,214.44,67.41,250.11-10.48,34.38-72.73-46.07-204.29-121.4-184C246.6,37,235,63.88,209.38,67.12Z"/><path class="cls-3" d="M209.38,67.12C105.72,62.6,77.83,164.2,140.54,223.32c61.77,57.42,214.44,67.41,250.11-10.48,34.38-72.73-46.07-204.29-121.4-184C246.6,37,235,63.88,209.38,67.12Z"/></g><g id="freepik--Shadow--inject-18" class="cls-1"><ellipse id="freepik--path--inject-18" class="cls-2" cx="215.49" cy="396.66" rx="210.8" ry="12.31"/></g><g id="freepik--Board--inject-18"><rect class="cls-2" x="21.05" y="96.31" width="1.09" height="26.09" transform="translate(-8.42 2.01) rotate(-4.45)"/><rect class="cls-2" x="23.15" y="130.68" width="1.09" height="11.22" transform="translate(-10.5 2.25) rotate(-4.45)"/><polygon class="cls-2" points="233.7 57.32 21.76 69.67 44.22 358.9 256.16 346.55 233.7 57.32"/><polygon class="cls-4" points="222.49 66.17 35.24 77.09 58.57 346.43 245.83 335.51 222.49 66.17"/><path class="cls-5" d="M92.78,129.16l8.3-30.5A33.05,33.05,0,0,1,124.6,127.3,30.9,30.9,0,0,1,101,160.13Z"/><path class="cls-2" d="M92.78,129.16l8.24,31a32.62,32.62,0,0,1-5.48.8A33.15,33.15,0,0,1,61,131,31,31,0,0,1,89.1,97.46L90,97.4a32.3,32.3,0,0,1,11.06,1.28Z"/><path class="cls-5" d="M172.14,124.53,169.5,92.76a32.84,32.84,0,0,1,23.21,8c13.42,11.61,15.18,31.89,3.9,44.93s-31.6,14.24-45,2.63a33,33,0,0,1-10.29-16.43Z"/><path class="cls-2" d="M172.14,124.53l-30.82,7.34a30.88,30.88,0,0,1,21.46-38,31.29,31.29,0,0,1,9-1.12Z"/><polygon class="cls-2" points="222.34 311.92 75.95 320.45 70.08 252.79 71.24 252.71 77 319.22 222.24 310.76 222.34 311.92"/><path class="cls-2" d="M222.16,310a1.35,1.35,0,0,1,1.4,1.23,1.25,1.25,0,0,1-1.12,1.37h0A1.32,1.32,0,0,1,221,311.4a1.26,1.26,0,0,1,1.14-1.37h0Z"/><path class="cls-2" d="M72,252.73a1.36,1.36,0,0,0-1.42-1.22,1.27,1.27,0,0,0-1.18,1.35h0a1.32,1.32,0,0,0,1.41,1.21,1.27,1.27,0,0,0,1.2-1.34h0Z"/><polygon class="cls-2" points="80.84 315.68 79.95 314.91 96.21 296.12 106.54 295.52 110.99 290.38 125.87 289.51 155.1 255.7 162.44 255.27 173.69 265.01 180.31 264.62 198.59 243.47 216.32 242.44 216.41 243.59 199.17 244.59 180.89 265.74 173.3 266.18 162.05 256.45 155.67 256.82 126.43 290.63 111.55 291.5 107.12 296.65 96.77 297.25 80.84 315.68"/><path class="cls-2" d="M81.44,316.11a1.31,1.31,0,1,1-.12-1.85h0a1.31,1.31,0,0,1,.12,1.85Z"/><path class="cls-2" d="M216.4,244.32a1.27,1.27,0,0,0,1.2-1.34h0a1.33,1.33,0,0,0-1.4-1.22A1.28,1.28,0,0,0,215,243.1h0A1.35,1.35,0,0,0,216.4,244.32Z"/><g class="cls-1"><polygon class="cls-2" points="80.28 309.28 79.4 308.51 98.79 286.07 115.73 285.08 127.87 295.59 140.71 294.84 151.25 282.64 165.66 281.8 170.08 276.7 183.98 275.89 192.97 265.48 197.66 265.21 220.72 285.18 219.98 286.04 197.27 266.4 193.54 266.62 184.55 277.02 170.66 277.83 166.24 282.93 151.81 283.77 141.27 295.96 127.49 296.77 115.34 286.27 99.37 287.2 80.28 309.28"/><path class="cls-2" d="M80.88,309.7a1.32,1.32,0,1,1-.13-1.87h0a1.3,1.3,0,0,1,.12,1.83Z"/><path class="cls-2" d="M219.45,286.55a1.29,1.29,0,1,0-.1-1.85A1.32,1.32,0,0,0,219.45,286.55Z"/></g><polygon class="cls-2" points="81.43 196.97 65.91 197.87 64.56 182.38 80.08 181.47 81.43 196.97"/><polygon class="cls-6" points="161.06 187.36 90.28 191.49 89.79 185.87 160.57 181.75 161.06 187.36"/><polygon class="cls-6" points="209.28 184.55 169.91 186.85 169.41 181.23 208.79 178.94 209.28 184.55"/><polygon class="cls-6" points="133.12 213.56 92.39 215.93 91.91 210.32 132.63 207.95 133.12 213.56"/><polygon class="cls-6" points="193.23 210.06 141.96 213.04 141.47 207.43 192.76 204.44 193.23 210.06"/><polygon class="cls-5" points="83.54 221.42 68.02 222.32 66.68 206.83 82.2 205.92 83.54 221.42"/></g><path class="cls-2" d="M496,197.79v39.5l-1.31-1.48c-.17.63-.25,1.11-.41,1.56-1.4,3.93-2,8.12-5,11.48a9,9,0,0,0-2.09,6.6c.29,1.93.2,3.33-1.16,4.14-1.54.91-3.58,1.77-5.22,1.51-2.26-.36-4.35-1.79-7-3,6.38,5.89,15.46,8.07,19.57-2.28a36.57,36.57,0,0,1,2.65-4.58v2.43c-1.27,2.17-2.37,4.45-3.84,6.47-1.91,2.62-3.86,5.43-8,4.63l-.12.8,4.91,1.94c-1.87,2.12-3.39,2.52-5.05,1.52-2.91-1.74-5.89-3.37-8.84-5l-1.06.74,13.56,36.37a5.62,5.62,0,0,1-1.42-2.14c-1.86-3.32-4.1-6.47-5.57-10-1.75-4.13-2.84-8.55-4.22-12.84-.58-1.81-.81-4-3.87-4,.94,2.7,1.67,5.21,2.67,7.61,4.26,10.23,8.95,20.3,12.8,30.67,2.52,6.82,6.53,13.19,6.94,20.74,0,.3.69.56,1.06.84v29.77c-16.06,1.61-30.67,6.41-41.86,18.83,1.55,1.54,5.52.74,5.76-1.54.21-1.92,1.36-2.37,2.37-3.21,9.77-8.12,21.31-11.4,33.73-12.25v12.15l-3.61,1.54,2.26.7-7.26,2.82c-3-4.07-2.28-8.65-1.73-14-1.57,1-3.09,1.46-3.44,2.35a17.67,17.67,0,0,0-1.16,5.88c-.15,4.69-.05,9.39-.05,14.21l15-3.15V388c-6.07,1.46-12.21,2.69-18.19,4.48-3.18.95-6.08,2.84-9.08,4.35-1.63.82-3.21,1.73-5.39,2.91a22.17,22.17,0,0,0-4.31,1.1c-.26.11.33,2.24.61,3.93a26.92,26.92,0,0,0,3-1.82c9.69-8,21.37-10.36,33.35-11.91v41.32a12.79,12.79,0,0,1-3.17.72c-7.81-.33-14.42,3.2-21.13,6.42-1.5.73-2.89,1.69-4.33,2.54,4.93-1.46,9.62-3.32,14.47-4.57,4.6-1.19,9.23-3.07,14.16-1.47v14H442.49c.33-1.23.39-3.34,1-3.53a63.87,63.87,0,0,1,8-1.33c.91-.15,2.44-.3,2.58-.78.95-3.09,2.84-4.23,6-3.65.36.07.83-.45,1.16-.64-.2-4-3.92-7.68-.27-11.61.15-.16,0-.58,0-.88-.14-4.85-.21-9.71-.45-14.56-.1-2,0-5.24-1-5.67-3.23-1.44-2.84-3.45-2.66-6.18a57.08,57.08,0,0,0-.61-10.85,33.68,33.68,0,0,0-1.84-6.12c-.46-1.39-1.75-3-1.4-4.06.81-2.53.88-4.59-1.29-6.22,2.66-4.23,1.71-6.82-3.36-9.62a4.15,4.15,0,0,1,.22-1.44c1.83-2.6.25-4.05-1.53-5.79-1.2-1.17-2.52-2.95-2.52-4.45,0-5.75.52-11.5.83-17.25.08-1.56.65-3.38.06-4.65-4.64-10-8.15-20.69-15.77-29.09a4.69,4.69,0,0,0-3.21-1.42c-.63,0-1.21,1.55-1.78,2.42-.71,1.07-1.16,2.47-2.12,3.18-4.38,3.25-9,6.2-13.33,9.48a48.51,48.51,0,0,0-6.41,6c-2.26,2.45-4.11,5.31-6.46,7.67-4.32,4.34-6.62,9.8-8.93,15.26-.32.75.22,1.81.05,2.66-.86,4.1,1.36,8.58-1.6,12.46-.46.59-.21,1.72-.28,2.6a40.21,40.21,0,0,1-.72,6.92c-.34,1.32-1.94,2.25-2.62,3.55a60.11,60.11,0,0,0-6.91,29.77c0,.68.83,1.3,1.06,2a61.2,61.2,0,0,1,1.88,6.64,9.08,9.08,0,0,1-.44,3.06,14.43,14.43,0,0,0,2.91-.58,13.14,13.14,0,0,0,2.37-1.6c-.36-1.51-.66-2.75-.89-3.73l3.67-1.59c2.15.35,4.27-.1,6.39-.16,1.08,0,2.68.28,3.19,1a52,52,0,0,1,3.42,6.64c1.84,3.8,3.62,7.63,5.48,11.42,1.34,2.73,3.35,5.29,4,8.16,1.25,5.26,1.88,10.65,4.79,15.39a3.08,3.08,0,0,1,.17,1.17H411.5a22.43,22.43,0,0,0-.69-2.25c-3-6.91-5.33-14.13-9.32-20.65-1.65-2.69-2.22-6-3.36-9-.26-.69-.93-1.82-1.3-1.78-2.58.31-1.84-1.57-2.09-2.84a4.73,4.73,0,0,0-.71-2.22,13,13,0,0,0-2.66-1.81c-.78,4.58,2.66,7.9,4,11.9,1.52,4.48,3.67,8.74,5.44,13.14,1.69,4.24,3.24,8.54,4.86,12.81a17.42,17.42,0,0,1-3.08-5.37c-.76-1.85-1.34-3.79-2.16-5.62s-1.77-3.47-2.67-5.2l-.69.39,1.47,4.19-1.29.8c1,2.49,2.05,4.65,2.8,6.91s1.15,4.42,1.71,6.64h-7.9c-2.65-4.29-5.86-4.29-8.5,0H362.9c.81-1.45,1.38-3.13,2.49-4.28,1.73-1.78,2-5.7,6-4.5.21.06.67-.41.9-.72,2.31-3.09,4.38-6.39,6.95-9.25,1.86-2.07,2.84-3.83.66-6.61-4.69,9.57-14.22,15.42-18.23,25.36h-7.29l-10.06-9.33c2.92-1.47,4.39-.68,6.57,2.53,1.62,2.37,3.84,4.33,5.87,6.56,1.72-2.63,2.75-4.75,4.28-6.43,3.24-3.57,6.9-6.75,10.07-10.38,2.81-3.22,5.19-6.83,7.7-10.17-1-2.63-1.92-5.25-2.75-7.5-3.91-.77-5.39,2.14-7.34,4.3-5.67,6.25-11.3,12.55-17,18.77-.56.61-1.62.76-2.44,1.12.29-.83.36-1.88.92-2.45,2.64-2.69,5.6-5.1,8.12-7.9,4.39-4.88,8.58-10,12.75-15a52,52,0,0,0,3.25-5.16,25.06,25.06,0,0,0-6,4.53,172,172,0,0,1-13.26,14.27,5.25,5.25,0,0,0-.82,1.26,15.34,15.34,0,0,1-1.86,3.21,60.72,60.72,0,0,1-6.94,6.28,14.49,14.49,0,0,1-5.06,2c-1.61.41-4.53,4.24-4.25,6.69,1-1.35,1.76-2.32,2.46-3.35,2.1-3.08,2-3,4.37-.26a40.76,40.76,0,0,0,4.41,3.68c1,.83,1.82,1.76,2.73,2.65h-3l-5.69-5.75-4,5.75h-59l3.23-3.66a12.94,12.94,0,0,1-2.58-2.14c-1.47-2-2.61-4.33-4.14-6.33-2.4-3.13-5-6.09-7.29-8.85-2.12.67-4.52,1.46-7,2.18-3.25,1-4.16,2.64-2.95,5.66a19.53,19.53,0,0,0,1.41,3c2.13,3.41,4.34,6.77,6.51,10.14h-4.25l-11.07-18.78,16-8.52-2.1-3.12c-3.31,1.85-6.82,3.81-10.34,5.75a47,47,0,0,1-4.28,2.23,3.48,3.48,0,0,0-1.58,4.28c.43.79.8,1.59,1.2,2.39l.07-.06c-1.54.34-3.3.33-4.57,1.1-4,2.47-7.84,5.32-11.87,7.8a6.77,6.77,0,0,1-4.17.9c-1.92-.26-3.75-1.16-6.11-2l1.52,3.65c-6.06-2.25-7.78-7.51-11.17-11.25a78.5,78.5,0,0,0,5,9.19,14,14,0,0,0,2.53,2.52c.58.55,1.21,1.05,1.82,1.57l-.59.78-3.36-1.05,1.8,2.66h-15.8q-1.68-3.36-3.35-6.72l-1.06.3,1.41,6.42h-9.11V403.78c.36-2,.7-4.07,1.11-6.09.22-1,.27-2.47,1-3,2.19-1.72,4.69-3,6.94-4.67.75-.55,1.09-1.64,1.64-2.47a7.59,7.59,0,0,1,1.51-2.09c2.58-1.86,3.42-4.36,3.18-7.41-.07-.86-.19-2.29.25-2.55,3.68-2.14,3.14-6,4.08-9.28q2.53-8.33,5.06-16.66c.19-.46.42-.92.58-1.39,2.24-6.8,4-13.79,6.84-20.33s6.56-12.34,9.94-18.46c.37-.67,1.2-1.09,1.56-1.77s1-2.23.75-2.44c-2-1.62-1.27-3.76-1.51-5.77A56.53,56.53,0,0,0,233.6,293a5.19,5.19,0,0,0-.5,1c-2.74,12.2-6,24.24-11,35.76-.27.61-.79,1.62-1.14,1.6-4-.26-2.45,2.42-2.75,4.54-.87-.82-2.05-2-1.85-2.84,1-4,2.29-8,3.49-11.95h.67l.58,3.85c1.87-3.47,4-7.27,6-11.14a7.73,7.73,0,0,0,.35-2.66,23.44,23.44,0,0,1,.43-3.54c1.07-4,2.19-8,3.42-11.9,1.33-4.28,2.79-8.52,4.19-12.78l.54.17-.59,3.3.81.31,6.26-12.49c.08-.16,0-.41,0-.6.86-3.17,1.2-6.62,2.73-9.42a10.62,10.62,0,0,0,.62-9.74l-3-.5a40.29,40.29,0,0,1,2.26-3.79,7.91,7.91,0,0,0,.27-9,46,46,0,0,1-3.35-6.74,2.5,2.5,0,0,1,.28-2.28c2.09-1.5,4.38-2.73,6.55-4.13a9,9,0,0,0,2.4-2c2.66-3.64,5.2-7.36,7.8-11a1.44,1.44,0,0,1,.71-.55c3.76-.95,7.5-2,11.3-2.76,4.22-.81,8.5-1.32,13.28-2l-2-6.39,2-2c-.69-.61-1.38-1.21-2.06-1.83-.29-.28-.54-.6-.8-.9a28.31,28.31,0,0,1-7-13.91,8.39,8.39,0,0,1,1-5.42,53.48,53.48,0,0,1,6-7.18,6.47,6.47,0,0,1,2-1c-2.32,3.46-6,6.19-5.78,11.1a35.58,35.58,0,0,0,6-6.14c1.81-2.46,3.25-5.19,4.73-7.61l-5,2.76c0-.28,0-.67.17-.83,3.74-3.37,7.61-6.61,11.22-10.11,2.3-2.23,4.22-4.85,6.28-7.26l-12-15.54-3.58,8-.7-.22a40.52,40.52,0,0,0-.18-19.18c-.72,3-5.81,4.39-3.5,8.39-2.61,3.7-.18,7,.88,10.52-.93-.75-2.08-1.57-2.21-2.52-.69-5.17-2.83-9.79-4.85-14.51-.79-1.84-.76-4-1.1-6.07-2.08,7.8-2.82,15.57-.85,23.65-6.23-6.33-5.4-14-4.67-21.75-4.73,5.42-7.88,11.92-15.26,14.15-.45-5,.53-6.44,3.88-7.35A13.18,13.18,0,0,0,262,128c1.74-1.49,2.94-3.59,4.51-5.29,1.38-1.5,3-2.82,4.45-4.21-2.82-.18-2.65-1.91-2.71-3.11-.12-2.7,0-5.42,0-8.41L262,112.54c.18-2.09.39-3.68.42-5.28.06-2.49,1.07-4.77.9-7.47-.11-1.76-1.25-3.27-.91-5,.52-2.55,1-5.1,1.48-7.67a10.26,10.26,0,0,0,0-1.92l-.77-.07-2.22,9.68-.68-.13V86.46c-1,.58-2.06,1.35-3.23,1.9A81,81,0,0,1,248.45,92c-.86.29-3.08-.73-3.09-1.17,0-1.48.18-3.06,2.41-3.53,4.27-.89,8.45-2.21,12.32-3.26A40.3,40.3,0,0,1,259,78.75c-.55-8.19,3.82-14.62,7.77-21.18,1.49-2.47,3.1-4.88,4.65-7.31a1.91,1.91,0,0,0-1.25.1,7.54,7.54,0,0,1-1.48-.33l19-21.15-10,4.16a12.45,12.45,0,0,1,3.56-2.54c7.39-3.91,14.8-7.79,22.18-11.72,6.73-3.58,13.13-8,20.2-10.63,12-4.44,24.8-5.3,37.51-3.91a77.87,77.87,0,0,1,18.1,4.49c13,4.74,22.35,14.44,31.09,24.57a58.15,58.15,0,0,1,14.45,33.36C425.21,71.8,423,78,428.51,82l-.4.61c-1.16-.84-2.29-1.68-3.83-2.81,1.72,8.46.51,16.23-1.65,24V94.31a10.9,10.9,0,0,0-1.31,2.45c-2.66,5.9-5.25,11.83-8.05,17.66a13.24,13.24,0,0,0-.77,10.82c.27.74.44,1.53.66,2.3L412,128c-.79-2.2-1.57-4.41-2.53-7.12-1.55,2.87-3,5.44-4.28,8.13-.19.42,1.13,2.1,1.34,2,2.45-.86,3.43,1.19,4.79,2.3,2.36,1.92,3.34,5.32,6.73,6.21.4.1.82,1.22.75,1.81-.27,2.1.86,2.76,2.62,3.28a18.69,18.69,0,0,1,4.06,2c.9.53,1.65,1.78,2.51,1.83,4.15.24,8.35.06,12.49.14,5.29.1,10.41.19,15.42,1.83,7,2.31,7.85,4.12,7.39,11.57-.23,3.89-.88,8.07,1.78,11.7a3.08,3.08,0,0,1-.06,3c-1.81,1.65-1.14,3.15-.29,4.85a24.24,24.24,0,0,0,3.24-2c1.13-1,1.71-3.1,3.81-1.88s4.9,2.26,4.78,5.57c-.08,2.22,1.12,3.17,3.09,2.24,1.26-.59,2.35-1.68,3.65-2,1.65-.43,3.73-1,5.11-.32,3,1.4,4.81,4.18,5.67,7.45C494.74,193,495.32,195.35,496,197.79ZM351,156.79h1.17v-.35c-.37.14-.73.27-1.06.43l.06.19ZM289.24,41.15l1.68,2.27,3.77-2.65c.53-.76,1-1.56,1.58-2.28a37.18,37.18,0,0,0,3.18-3.91c3.15-5.35,6.75-9.9,13.85-9.34l1.58-.92c2.22-1.83,4.2-3.72,7.34-4.38,2.59-.54,4.87-2.57,7.29-3.94L329,14.9a60.35,60.35,0,0,0-7.3,1.43q-9,2.9-18,6.22c-4.75,1.8-6.68,6-8.41,10.45-1,2.64-2.94,4.94-.66,7.77l-2.93-1.57-2.61,2,2.49-7.52-.68-.34-5.27,8.45ZM384.9,285.76c1-.62,2.59-1,2.92-1.89,1.76-4.6,3.2-9.33,4.76-14l-1.15-.5c-1,1.7-1.91,3.42-2.91,5.1-1.52,2.56-.82,6-3.26,8.27-.57.53-.2,2.06-.26,3.14-.32,0-.78-.18-.95,0-.83.77-1.58,1.62-2.36,2.45.37-1.34.71-2.68,1.13-4,2.95-9.48,5.94-19,8.84-28.46a2.26,2.26,0,0,0-.53-2c-5.25-2.49-10.38-5.86-15.94-6.92a42.47,42.47,0,0,1-11.62-4.11l.07.08c0-3.34.17-6.47-1.38-9.87-2.71-6-6.78-7.73-12.68-6.4-4.32,1-8.92,1.2-11.68,5.76-3.55,5.85-7.59,11.39-11.25,17.17-1.32,2.09-2,4.56-3.22,6.75-5.64,10.36-10,21.13-11.07,33-.46,5-.41,5.06,4.53,5.43,9.85.74,19.72,1,29.49,3.05,7.86,1.64,16,2.11,24,3.07,4,.47,6.06-.83,7.65-4.55,1.18-2.75,2.52-5.44,3.78-8.15L382,290l3.8-2.35Zm100-62.32,1.58-3-1.58-2,1.67-2,7.63,12.9.14-.12c-2.16-5.49-4.31-11-6.28-16-.63.48-1.68,1.33-2.78,2.11-3.17,2.21-5.72,6.68-5.42,9.18l2.11-2c.19.55.38,1.09.56,1.64l2.47-.91c-.48,1-.91,2-1.45,2.93-1.3,2.28-3.27,4.4-3.83,6.84-.78,3.38-.63,7-.6,10.52,0,1.14.92,2.26,1.69,4,5-8,5.23-15.91,5.27-23.87,0,0-.76-.11-1.15-.22Zm3.67-34.63c-.42-1-.75-2.69-1.29-2.75-1.15-.14-3,.19-3.5,1a21,21,0,0,0-2.94,6.78c-1.21,5.83-1.77,11.81-3,17.62-2.74,12.45-1.54,25-1.63,37.54.21-1.6.12-3.21.23-4.81.79-11.16,1-22.41,2.66-33.45,1-6.59,4.09-12.89,6.44-19.24.36-1,1.83-1.55,2.78-2.31-.18.83-.71,1.77-.48,2.46,1.18,3.44,3.1,6.42,2.38,10.63-.66,3.81.55,8,1.06,11.95a17,17,0,0,0,1.29,3.37c2.34-4.91,3-11.66,1.58-14.3-.61,3.74-1.2,7.29-1.78,10.85-.4-3.81.29-7.6-.28-11.19-.5-3.12.92-6.67-1.64-9.43,0,0,.07-.21,0-.29-.55-1.48-1.17-3-1.8-4.43ZM388.94,317.63l2.17-3.79-1-.73L385.32,318l.53.66,3.15-1.11-2.47,2.6,4.29,1.31c.73,4,1.82,4.35,5,1.78.7-.57,1.36-1.2,2.06-1.78,7.22-6.13,14.48-12.22,21.65-18.41a31,31,0,0,0,3.33-4.07c-3.05.05-22.85,15.65-23.95,18a19.59,19.59,0,0,0-3.22.58,28.78,28.78,0,0,0-3.43,1.7c0-1.07.08-1.77.12-2.6Zm-6-186.16c1.91,1.29,3.6.89,5.36-.45s4-2.43,5.76-3.89a5,5,0,0,0,1.6-2.92c1-6.37-1.83-12-3.65-17.87-.56-1.8-1.84-1-2.75,0a73.37,73.37,0,0,0-6.42,7.23c-1.25,1.8-1.69,4.18-2.49,6.29l.76.32,8.58-10.68a42.61,42.61,0,0,1,1.66,5.17c.23,1.28.55,3.26-.12,3.85-1.82,1.61-1.91,3.44-2.26,5.58-.25,1.52-1.91,2.91-3.21,4.07-.22.19-1.76-1.08-2.69-1.68l4.4-1.49.95-6.34-3.28-2.21c-.28,2.06,0,4-.87,5.25s-2.91,2-4.49,3l3.38,1.84-2.94-.16,2.83,5.2-4.15-3.4c.81,2.36,1.39,4.08,2,6l2.75-1c-.28-.67-.5-1.22-.73-1.71ZM282.66,66.06l-3.34,8.23c2.33-3.31,6.8-4.75,5.53-10l-2.29,1.86,1.6-7.33-6.45,7.51-.34-.28,3.36-9.9-.48-.18L277,59.18l-.54-.34L280.32,48a93.49,93.49,0,0,0-15.95,32.56c5-1.74,5.1-7.29,8.33-9.93l5.08-1.23c-.08-.17.12.25.21.46ZM459.32,174.4c2.85-2.4,1.06-5.61,1.34-8.43.23-2.29-1.82-2.76-3.76-2.66l5-3.31-.53-1c-2.8-.27-5.24.89-7.64,2.23l.1,0H440.24v1.71q2.1.11,4.2,0c1.57-.15,3.37-1,3.28,1.79l-3.65.77c3.21,1.1,3.2,1.1,2.3,3.29-.05.11-.1.31,0,.37,1.28,1.43,2.58,2.85,3.72,4.11.08.89.16,1.74.28,2.92l7.78-1.54-9,3.69c5.33,1.38,9.55-1.45,14.17-1.86l.06-1.29ZM300.65,229.64c1.93.6.73,1.72.37,2.59-2,5-4.4,9.78-6.12,14.83-3.78,11-7.25,22.19-10.92,33.53a6.35,6.35,0,0,1-.1-1.57c2.77-14,7.41-27.41,12.55-40.67.45-1.15.64-2.91.06-3.77-.47-.68-2.45-.85-3.52-.51-4.48,1.45-8.83,3.27-13.29,4.77-4.13,1.38-6.62,4.07-8.2,8.12-2.83,7.3-6.32,14.35-9,21.7s-5,15.13-7.09,22.8c-1.39,5.07,2.26,8.62,7.35,7.56,3.65-.77,7.27-1.73,10.92-2.49,2.35-.49,4.75-.77,7.13-1.14l.19.77c-3.93,2.1-9.76.51-12.26,6.52l12.88-5.59,8.94,14.4c.61-.74.65-1.17.47-1.47-1.26-2-2.67-4-3.83-6.12a7.09,7.09,0,0,1-1-3.5c0-1,1.12-2,1.29-3,.61-4,1-8,1.53-12a13.41,13.41,0,0,0,.06-2.37c-.12-2.23-.87-4.6-.34-6.65a124.24,124.24,0,0,1,5.24-16.3c6.8-16.39,12.86-33.16,23.64-48-2.25-.05-2.79-4.88-5.8-1.6a56.53,56.53,0,0,0-4,5.61c-1.77,0-3.76-.15-5.72,0-5.38.5-10.72,1.39-16.1,1.67a41.71,41.71,0,0,0-17.45,4.44c-1.58.82-3.61.75-5.42,1.12-.61.13-1.2.35-2,.58l2.15,1.38c-7.7,1.21-14.48,3.07-20.75,8.28l4.15,1.38,8.87-6.84-1.1,2.36.66.48,3-3.83.17,1c1.06.2,2.2.77,3.15.53,4-1,8-2.27,11.93-3.44l4.82-1.43-.13-.27-8.54,1-.11-.78a37.13,37.13,0,0,1,18.77-4.27L286.26,224l19.32-5.38c-.74,2.34-1.78,5.61-2.79,8.77l-2.14-1.29v3.61c-.49.49-1.16,1.5-1.45,1.41-1.9-.63-1.95.42-1.68,1.69a16.64,16.64,0,0,0,1.36,2.78C299.63,233.08,300.14,231.36,300.65,229.64Zm63.94-106-.45-.48.48-3.23-.76.49c-3.43-3-4.45-7.62-7.53-11.56l9,3.4c-1.63-6.33-8.3-11.2-12.21-9.4-1.05-3.2-2.08-6.36-3.11-9.52l-.59.19c.75,2.82,1.49,5.63,2.28,8.61-3.7-2.43-9.9-2-12.21.72l10,2.67-.16.58-11.58-2.66c-.25-5.5-.48-10.52-.72-15.79l-.42,2-1.93-.36.94,6.78c.21,1.41.78,3.61.28,3.89-3.08,1.73-.25,2.43.52,3.67l-1.23,1.62c1.9,1.87,2.11,3,1.26,5.94a6.54,6.54,0,0,0-.57,2.26c.29,2.93.75,5.84,1.14,8.75-.42-3.68,2-7.56-.62-11.06.33-.71,1-1.46.93-2.13-.35-3.3,1.8-3.53,4-3.13,3.84.7,7.62,1.73,11.43,2.62,2.67.63,5.64,4.7,5.68,7.94l-3.17-2.35c-.47,1.57-.81,2.67-1.13,3.74l-2.13-.26-.21.79,3.25,1.1c-.08,1.14-.18,2.5-.33,4.57-1.53-2.12-2.66-4.47-4.4-.93-.7-3.28-.76-3.33-5.15-3.77L349,121.7l-.52,1.11-9-4.07c-1,5.76,1.86,11.17,3.22,17.7l-11.86-12.19-.51.32,4,9.88-.9.48-15.09-26.28c1,6.74,2.15,13.36,6.25,19l-.74.42-5.13-6.42c-1-4-1.79-8.11-3-12.08-.62-2.1-2.15-3.93-2.73-6a34.83,34.83,0,0,1-.66-6.44c-1.37,6.67.5,14.25,4.86,21.39a28.59,28.59,0,0,1,1.49,3.17l-6-8.66-4.55,7.74-.84-.49c1.32-2.43,2.57-4.91,4-7.28,1.62-2.71.49-5.28-.35-7.79-.16-.45-1.73-.65-2.59-.55-.66.09-1.23.84-1.93,1.37l2.25,1.55c-1,.33-1.95.51-1.95.68,0,1.77-1.06,2.26-2.48,2.14s-2.94-.11-3.94-.83c-2.09-1.51-3.82-3.52-5.78-5.22s-2.09-3.62-2.36-6c-.29-2.55-1.81-5-2.85-7.57l3.84.35.14-.94-3.8-.7-.07-.59,9.5-2.55c-2.55-1.52-4.36-2.77-6.33-3.69-.79-.37-2.36-.42-2.8.07a8.52,8.52,0,0,0-2,4,16.29,16.29,0,0,0,.41,4.72c.63,4.66,1.13,9.34,2,14a72,72,0,0,0,2.47,8.14l-2.74-.86c.26,2.28.63,4.37.7,6.47A52.54,52.54,0,0,0,299,146c3,4.76,5.91,9.61,8.7,14.51a8.32,8.32,0,0,0,7.35,4.42,31.14,31.14,0,0,0,17-3.44c10.27-5.39,21.85-8.38,29.71-18.14,2.24-2.79,1.7-5,2.32-8.13-1.85,1.23-3.15,2.4-4.68,3a16,16,0,0,1-4.66.69c-1.56.1-3.12,0-4.69,0,10.59-1.92,15.73-7.13,15.56-16.12Zm-48,92.69c1.44.35,2.83,1.12,4.07.92,6.26-1,12.47-2.29,18.73-3.35,4.28-.72,8.6-1.23,13.35-1.9l1.39-1.25c-.06-.18-.3-1-.62-2l7.09-.5-2.88,1.47a5.07,5.07,0,0,0,2.81.16c7.22-.43,14.44-.85,21.66-1.19,5.32-.26,10.65-.39,16-.6a4.79,4.79,0,0,0,1.33-.42c1.27-.45,2.53-1.27,3.8-1.31,10.11-.28,20.22-.55,30.33-.52,3.5,0,7,1.24,10.48,1.27,4.29,0,8.62-1.64,13.12,1.07-.37-1.58-.6-2.54-.87-3.69H407.21v-.87h27.43c-1.23-1.07-2.49-2.07-3.7-2-5.9.24-11.78.79-17.67,1.13-.41,0-.93-.79-1.24-1.3-.08-.12.43-.82.78-.92,2.3-.72,4.3-4.6,3.53-7.26l-1.64,1.5-3.72-.52.75-.66-2.57-3.45-6.84,14.11,1.64.49a75.78,75.78,0,0,1-10.65.45c-10.54-.1-20.78,3.32-31.56,1.64-6.14-1-12.7.29-19,1.12-8.26,1.07-16.45,2.72-24.57,4.1Zm154.83,17.54h-2.59l2,.47-.58.52h-3.54v-1.75c4.67-.45,4.67-.45,4.47-2.48h-4.72c-.75-4.29,2.79-1.71,4-2.8l-4.36-.27v-.66h5.06v-.3l-5.34-.24.05-.86h6.27l.09-.93-5.31-.7v-.46l4.58-.31v-.21l-4.63-.49.09-.71h5.59c.68-4.62,1.33-9.06,1.87-12.76l-4.61-1.4.17-.71,1.67-.18-3.14-.47,1-1.36v-.93c-2.29,1.71-4.59,3.56-6.2.76L459.2,208l5.19,1.87c-.28,1-.6,2.06-.88,3.06l-3.66-2.71-.63.61c.48,1.76-2.62,4.21,1.27,5.31-.33,4.24-.65,8.47-.93,12.21-1.73,0-3-.4-3.63.08-1.05.88,0,5.71,1.32,5.89.85.12,1.86-.95,3.58-1.93a20.87,20.87,0,0,1,2,3c.92,2,1.51,4.14,2.39,6.15.23.53,1,.81,1.81,1.41.19-1.11.32-1.86.46-2.65l2.24-.22c-2.8-.25-2.8-.25-2.77-2.65l4.44-.29Zm-19.05-15.41c-5.84-5.08-44.57,4.42-50.29,12.26l22.69-9.1.37.93-12.38,4.81,3.85,1.68c-4.36,2-8.47,3.75-12.5,5.69a5.57,5.57,0,0,0-2,2.17c-.15.27.62,1.53.93,1.51a3.59,3.59,0,0,0,2.43-.87c2.75-3.42,6.53-5,10.56-6.15a48.23,48.23,0,0,0,5.08-1.73c1.52-.62,2.91-1.94,4.44-2.09,6.22-.6,12.47-.92,18.71-1.23,2.79-.14,5.59,0,8.34,0,.17-3.13-.43-3.6-3.67-4-4.65-.54-9.29-1.23-13.94-1.86l-.1-.62ZM311.7,235.82l-1,.08a4.66,4.66,0,0,0-.47.77c-5.27,13.61-10.49,27.23-15.79,40.83-2.19,5.61-1.65,11.32-1.2,17.23l3.95-.35a23.57,23.57,0,0,1,.85-3.53c.74-1.84,2-3.53,2.43-5.41.68-2.83.59-5.84,1.32-8.65,3.1-12,6.41-24,9.55-36A26.4,26.4,0,0,0,311.7,235.82Zm115.86-.5c4.35-.52,7-3.35,10.69-2.41.34.08,1.07-.11,1.12-.31.78-2.8,3.07-1.56,4.62-1.52a42.83,42.83,0,0,1,6.82,1.25c.19-.91.73-2,.44-2.65-.21-.5-1.53-.79-2.34-.76-4.62.16-9.3.07-13.84.8-3.56.57-6.93,2.23-10.4,3.35-1.38.45-2.82.74-4.22,1.12a11,11,0,0,0-3.37,1c-2.81,1.93-5.48,4.06-8.17,6.15-1.69,1.31-3.33,2.7-5,4,4.42-2.09,8.65-4.3,12.86-6.55.32-.17.45-.68.77-.87.95-.6,2.19-1.77,2.89-1.52a5.85,5.85,0,0,1,3,2.76c1.26,2.72,2.07,5.63,3.12,8.45,1.79,4.81,3.69,9.59,5.42,14.42.8,2.21,0,3.43-2.46,4.06-4.13,1-7.13,3.92-9.88,7,2.75-1.31,5.2-3.08,7.8-4.59s5.78-2.43,6.71-5.89c-3.43-5.43-9.75-24.84-8.82-27.08.4,1,.81,2,1.19,3,2.69,7,5.59,14,8,21.08,1.19,3.58,1.17,4,4.79,3.32,4.35-.86,8.66-1.89,13-2.66a65.65,65.65,0,0,1,6.72-.53l-.06-.85c-2.27.12-4.55.14-6.81.39-4.18.46-8.33,1.11-12.51,1.56-.78.09-2.07-.1-2.37-.62a39.54,39.54,0,0,1-2.89-6.1c-.62-1.66-.75-3.5-1.38-5.17C431.32,244.73,429.58,240.41,427.56,235.32ZM334.67,335.45l-4.53-.7c-4-.64-7.95-1.66-11.95-1.77-2.46-.07-2.54-.71-1.88-2.49,2.51-6.83,4.52-13.89,8.91-19.88a22.16,22.16,0,0,0,1.59-3.38c-1.41.16-2.91-.07-3.22.43-5.09,8.24-10.93,16.21-11,26.32,1.74.8,3.21,1.89,4.8,2.13,5.29.78,10.6,1.43,15.93,1.78a5.49,5.49,0,0,0,6-4.1c1.14-3.37,1.14-7.18,3.79-10a1.41,1.41,0,0,0,.21-.56,70.87,70.87,0,0,1,2.46-8.32c3.21-7.34,1.78-6.33-4.32-6.55-.15,0-.3.16-.15.08.44,1.19,1.46,2.5,1.18,3.39C340,319.71,337.32,327.49,334.67,335.45Zm95.2-182.1c1.1.19,2.73,0,3.21.63,1.89,2.54,6.11,2,7.14,5.64.08.26,1.31.32,2,.25,2.88-.3,6-1.55,8.56-.84,3.6,1,6-.74,8.71-2a2.83,2.83,0,0,0,1.41-1.61c.08-.32-.79-1.09-1.36-1.33-3-1.29-6-2.86-9.24-3.57s-6.45-.55-9.69-.63c-.95,0-1.91.59-2.87.6a12.75,12.75,0,0,1-4.64-.41c-3.51-1.37-2,2.35-3.23,3.27ZM291.25,80.83l17.83,8.42c-.28-6.57-.6-14-.94-22C301.59,70.39,296.52,75.32,291.25,80.83ZM468.32,268.39l-1.81.28a10.87,10.87,0,0,0,0,3.12c1.69,5.7,3.3,11.44,5.36,17,1.24,3.33,2.77,6.82,5.12,9.36a19.32,19.32,0,0,1,3.72,4.94c.63,1.37,1.28,2.74,1.92,4.11,2.66,5.7,5.3,11.41,8,17.09.14.28.82.3,1.71.6-1.26-3.43-2.21-6.49-3.47-9.41-5.08-11.76-10.25-23.47-15.39-35.2Q470.89,274.33,468.32,268.39Zm-68.5-56.87c-.46,4.58-.95,9.37-1.41,14.17-.18,1.77.71,2.78,2.44,2.66,2.69-.2,7.79-5.46,8.42-8.17.72-3.06,1.73-6.06,2.35-8.17,2.1,0,4.33.47,4.62-.08,1.14-2.18,3.42-2.41,5-3.69.07-.06,0-.3,0-1ZM272.37,411.64a20.67,20.67,0,0,0-2.92.48,15.26,15.26,0,0,0,.53,4.71c1.48,4.2,2.73,8.59,4.94,12.4,3.26,5.62,6.28,11.5,11.55,15.76,2.26,1.83,3.62,1.47,5-.7a12.71,12.71,0,0,1-1.61-1.75c-2.62-4.19-5.18-8.42-7.78-12.61a4.9,4.9,0,0,0-1.48-1.75c-2.32-1.19-5.58-6.8-5-10l2.38,4.38.37-.19q-2.72-6.18-5.44-12.34l-.52.15ZM232.8,377.35l-.76-.46a26.33,26.33,0,0,0-1.42,2.33,48.49,48.49,0,0,1-2.1,4.58c-3,4.73-4.33,9.81-2.81,15.21,2.29,8.13,5,16.15,7.46,24.21.15.48.62,1,.53,1.39-.94,4.2.73,6.51,5,7,1.84-1.24,1.56-2.74.56-4.59a65.42,65.42,0,0,1-3.77-8.1c-1.52-4.13-2.76-8.37-4.16-12.7l-2.81,1.28c.93-4.31-1.62-8.49,1.48-12.7l1.3,2.84v-5.45l-3.56,1.45c-2.08-6.9,4.18-10.74,5.06-16.29ZM307.24,307l-.71-1.05a8.83,8.83,0,0,1,1.66-.58c3.17-.45,6.36-1.25,9.53-1.16,5.62.15,11.24.79,16.85,1.34,6.08.59,12.15,1.34,18.23,1.93a6.93,6.93,0,0,0,2.28-.6l-.1-.86c-3.15,0-5.91-1.23-9.45-.74s-7.59-1.93-11.48-2.36c-7.61-.85-15.28-1.2-22.93-1.77a4.41,4.41,0,0,1-2-.32,28.61,28.61,0,0,1-2.75-2.15c-1.59,2.58-2.85,4.62-4.16,6.77.25.44.92,1.08.94,1.74.06,2.87,1.9,2.71,3.76,2.27,2.85-.68,5.67-1.54,9-2.46ZM287,35.85l-.59-.52a18.26,18.26,0,0,0-1.91,1.82c-6,7.76-12.3,15.37-18,23.38a23.45,23.45,0,0,0-3.93,19.57C267.51,63.48,276.74,49.4,287,35.85ZM349.32,99.7q-4-10.73-8.1-21.53l-.51-.17L338,97.12ZM280.26,418.49c.8-4.35,3.77-6.11,6.88-7.57,8-3.76,16-7.39,24-11,.54-.25,1.13-.41,1.69-.61l-.61-1.21-3.86-1c-.64,1.18-.76,1.8-1.08,1.92-1.6.6-3.29,1-4.88,1.59-4.29,1.72-8.68,3.27-12.79,5.38-2.88,1.49-5.26,3.94-8.05,5.65S278.2,414.58,280.26,418.49Zm116.6-147.91c-1.6,4.95-3.15,9.81-4.74,14.65a51.67,51.67,0,0,1-2.68,7.45c-2,4-4.46,7.79-6.71,11.68-.2.34-.53.79-.45,1.09.24.79.49,1.87,1.08,2.18a2.7,2.7,0,0,0,2.37-.39,6.3,6.3,0,0,0,1.26-2.35c1.32-3,2.67-6,3.91-9.05q2.44-6.06,4.71-12.19c.8-2.17,1.24-4.48,2.14-6.61C398.73,274.71,398.82,272.66,396.86,270.58ZM469,193.13l4.93-6.58-1.4-.67,1.63-2.56-.68-.85-3.7,2.49v-4.45c-1.88,1.7-3.77,2.61-4.3,4-2,5.34-3.53,10.84-5.24,16.29,3.27,1,4.27.22,4.66-2.85.78-6.21,1.26-7,6.06-10.26Zm-78.69,44.44c-.26-1.92-1.54-2.54-3.88-1.64-4.14,1.57-8.33,3-12.51,4.51a9,9,0,0,1-2.62.58c-3.19.18-3.92-.8-2.79-3.7s2.26-5.56,3.39-8.34l-.6-.67c-.56.42-1.41.73-1.62,1.29-1.07,2.8-2,5.66-2.91,8.53-.37,1.24-1,3.38-.51,3.72,1.45,1,3.58,2.23,5.1,1.88,4.59-1.07,9-2.85,13.48-4.35ZM316.19,396.21l-.31-1.33,53.44-6.68a11.7,11.7,0,0,0-4.77-.54c-6.23.51-12.51.78-18.68,1.72-10.25,1.56-20.44,3.53-30.63,5.42-2.17.4-2.14.57-1.68,3.16Zm-5.12-298.4c0-4.19-1.38-6.87-3.75-7.44-4.09-1-8.13-2.52-11.52-1.59l15.4,12.78c-.83-2.63-1.77-5.59-2.7-8.56l.76-.24ZM312.53,268l15-23.42C317.13,249.55,314.37,258.48,312.53,268ZM420,281c4.39-3.28,7.68-6.51,11.59-8.49,7.29-3.7,15-6.39,23.47-5.64a8.33,8.33,0,0,0,2.6-.64l-.24-1.22c-3.65.28-7.3.46-10.94.85a42.39,42.39,0,0,0-25.35,12.2c-.58.6-.66,1.69-1.13,3Zm-70.68,20.09v-1c-11.6-.81-22.78-5.79-34.75-2.92,5.74,1,11.52,1.83,17.31,2.43S343.54,300.65,349.32,301.13Zm130.33-83.36.93.2c4.78-6.27,9.15-12.64,4.38-21.68-1.82,7.52-3.54,14.5-5.27,21.48ZM380,243.67l23,14.79c1,.68,2.07,1.43,3.11,2.14-.89-.92-1.74-1.89-2.68-2.77A104.13,104.13,0,0,0,384,243.73c-1.77-1-3.05-1.21-3.87-.06Zm-8.13-115.49c-1.29,1.44-2.21,3.09-3.61,3.89-3.53,2-3.22,5.1-2.91,8.34,4.76-.88,8.18-7,6.56-12.23Zm-59,112.57q-3.51,10.92-7,21.84l.81.26c3.6-3.13,6.83-13.64,6.27-22.1ZM277.44,130l1-.2c1.86-4.89,1.91-12.25-.58-16.21l-.4,3.93-2.14-1.39C276.1,121.18,276.77,125.57,277.44,130ZM385.57,413.73l-1.8.65c3,7.71,6.05,15.41,9.17,23.37.7-.57,1.41-1,1.36-1.13C391.43,429,388.5,421.36,385.57,413.73Zm26.31-156.58c-3.24-2.25-3.41-6.41-4.54-11.2-.75,1.6-1.59,2.55-1.38,3.1a99.34,99.34,0,0,0,5.1,11.92c1.68,3.07,4.11,5.71,6.48,8.91-.41-2.17-.74-3.93-1.08-5.77l-1.14.34c-1-1.07-2.1-1.84-2.61-2.9S412.2,259,411.88,257.15Zm-3.42,36-16.52,18.39c3.55.21,8.7-5.44,16.52-18.41Zm55.93-35.93c-1.29-6.26-2.59-12.57-3.88-18.87l-1,.14a23.38,23.38,0,0,0,0,2.9c.49,3.79,1.43,7.58,1.46,11.37,0,2.82,1,4.08,3.42,4.44ZM303.08,105.32c-1.22-1.64-2.49-2.65-2.78-3.89-.69-3-2.17-4.76-5.24-5.16,1.28,6.76,3.09,9.77,6.23,10.27l-1.38-2ZM289.54,292.89a45,45,0,0,0,2.8,16.76h1.15l1.94-2.72C291,303.09,291.85,297.37,289.54,292.89Zm187.27,88.55,1.82,3.71-2.95,1.8,2.93.3-6.31,3.4c3.45,1.23,6,.2,6.61-3.08a80.48,80.48,0,0,0,.81-9.3L475,379.64l.07.33h3.86c-1.06.75-1.6,1.1-2.11,1.47ZM406.16,175l-15.22,5.6c1.24.85,2.1,1.84,2.55,1.68a59.72,59.72,0,0,0,8.88-3.67C404,177.78,405.09,176.09,406.16,175Zm-82.39,51-.34-.58c-1.58.54-3.26,1.69-4.74,1.48-3.38-.49-4.29,1.57-5.26,3.94l6,1-.6-.66ZM321.15,93.5h.42c.54-3.92,1.09-7.84,1.65-12l-3.64-.33v11.4h.55l.54-2.7.48.07Zm154.54,125c-2.79,25.32-2.79,29.5-.47,32.52-1.9-10.63.46-21.62.47-32.56ZM388,441.31l-4.09-13.69c-1,1.34-1.49,2-1.52,2.1a55.7,55.7,0,0,1,1.39,5.7C384.1,437.77,386.22,441.15,388,441.31Zm6.11-126.47c1.33,1.32,2.9.36,3.85-.76,3.15-3.7,6.05-7.6,9.05-11.43l-.45-.34ZM221,440.84c.61-5.94-2.69-10-5.83-14.06l-.71.35ZM357.9,96.68c-1.36-2.29-2.48-4.3-3.75-6.22a2.73,2.73,0,0,0-1.68-.95c-.22,0-.84.83-.85,1.3C351.54,93.6,354.48,96.47,357.9,96.68ZM368,218.54c3.15.45,4.18-1.31,4.48-7.26-2.84.23-3.22.83-4.48,7.26Zm6.78-17.13,1,.43c5.52-4.29,5.77-4.62,5.54-7.41l-1.83,2.34a11.87,11.87,0,0,0-2.1-.65c-1,1.72-1.78,3.51-2.61,5.29Zm15,215.61c.2-.82.77-1.88.47-2.27-.43-.55-1.5-.61-2.29-.87l-.52.8,7.8,17.83.54-.22c-2-5.11-4-10.23-6-15.27Zm69.32-154.46c-6.82-1.52-13.21,0-19.93,2.42Zm-130-166.89.88.13q1.18-10.41,2.35-20.84l-.8-.09Zm3-50.32L331,45c-.88,3.18-1.75,6.36-2.66,9.65l2.53,1.5Zm.68-37.17c-6.92-.59-12.35,2.85-17.7,6.54,4.74-.84,8.25-5.57,13.88-4.12L327.79,9ZM311.9,71.64c-1.26,6.13-2.73,11.66,0,17.29ZM380,135.36l-2.73-7c-1.2,2.18-3.73,3.48-1.86,5.8.72.8,2.55.71,4.64,1.2ZM294,270.9l.75.19q3-8.85,6.05-17.71l-1.1-.35ZM409,187.67l-.36-.24-7,7.81,1.6,3c2.15-3.84,4-7.21,5.79-10.57Zm-145.9,27.86.13.91L285,212.06l-.17-.87Zm199.81-29.48-.93-.3-4.86,15.3,1.06.34ZM267.77,299.72l-9,1.35C263.85,304.17,264.74,304,267.77,299.72Zm49-233h-.57q.42,9,.86,18l1-.07c-.42-4.16-.91-8.3-1.25-12.46-.13-1.78,0-3.63,0-5.47Zm-2.28,10.61h-.56V95.79h.56ZM346,117l.21-.89-3.88-1.23a5.28,5.28,0,0,0-.88-2c-.47-.46-1.36-.48-2.07-.69a28.9,28.9,0,0,0-.73,3.32c0,.25.77.59,1.19.89.67-1.88,1.56-.32,2.37-.15C343.51,116.45,344.77,116.68,346,117ZM300.6,296.54h-7.28C293.57,299.74,295,299.83,300.6,296.54Zm49.85,13.71.09.83,12.26.72v-.75c-4.11,0-8.15-2.16-12.35-.8ZM291.13,77.19l8.61-7.76C298.67,72.5,292,72.15,291.13,77.19Zm85,46.37-1.08-.24q-.74,3.23-1.45,6.45c2.64-1.65,4.36-3.52,2.51-6.21ZM443.94,211l-10-2c1.36,1,3.33,1,4.28,1.91,1.93,1.92,3.54,2,5.7.09ZM301.43,288l1.14.15L304,274.76l-.68-.09Zm.29-39.42.78.37q3.36-7.75,6.73-15.5l-.61-.27Zm158.81,139.6.38,1c2.51-2.9,7.75-.4,9.7-5.25ZM341.14,166.3l.41.56,7.21-3.49-2.29-1.52Zm-11.67-56.64.91-.06c-.2-3.63-.41-7.27-.62-10.9l-.29.07ZM468.7,289.45l.89-.27q-2-6.31-4.07-12.63l-.65.2Q466.79,283.1,468.7,289.45Zm-167.25,20.6c0-2.31.22-3.84-.13-5.23-.1-.43-1.76-.47-2.71-.68,0,.92-.33,2,0,2.73C299,307.8,300,308.48,301.45,310.05ZM475.58,202.38c.27-2.51.19-2.55-6.24-2.67C470.5,203.25,473.7,201.11,475.58,202.38ZM383.42,418l-.87.27c-1,4,3.19,6.26,4,9.67Q385,423,383.42,418ZM247.51,252.78c2.35-1.84,3.76-6.24,2.63-10Zm173-74.71,7.64-3c-3-1.34-4.62-.85-7.64,3ZM272.91,311.86c1.65,2.38,4.16,2.18,6.6.07l-.09-.88Zm7.1-7.24,5.54,3.8C284.32,304,282.86,303,280,304.62Zm172-121c1.78,1.88,4.73,1.35,8.68-1.51Zm-53.92,27.23-1.18-.26L395,220.77l.74.14q1.19-5,2.35-10ZM356.93,41.43l-1.33.28c.07,1.29.15,2.58.23,3.88l2.47-.48C357.84,43.89,357.39,42.66,356.93,41.43Zm5.39-14.16-.58.27L367,39.07l.57-.26Zm18.81,327.49,1.26.69,2.49-2.32-2.75-1.4Zm30-117.7-.68-.72-6.71,5.26.54.68ZM354.93,424l-.58-.73-6.11,4.67.66.84Zm-45,13.17-.4-.62-9.67,4.19.37.86Zm72.52-115.49-.33,1.11,6.41,2.54.41-1.09ZM292.32,28.28l.83.94L299,23.78l-.63-.72ZM357.07,89.7l-.72.38,3.93,7.7.86-.45ZM362.16,229l.75-.41-4.2-7.11-.85.51Zm-72.07-62.54.41.43,6.39-6-1.23-1.24Zm10.72,144.85c-2-2.4-3.44-1.95-4.95-.13,1.58,2.91,3,.44,4.95.14ZM460.93,269l-1.23.41,1.68,6.84.54-.13Z"/><path class="cls-4" d="M496,332.08c-.37-.28-1-.54-1.06-.84-.41-7.55-4.42-13.92-6.94-20.74-3.85-10.37-8.54-20.44-12.8-30.67-1-2.4-1.73-4.91-2.67-7.61,3.06,0,3.29,2.15,3.87,4,1.38,4.29,2.47,8.71,4.22,12.84,1.47,3.49,3.71,6.64,5.57,10a5.62,5.62,0,0,0,1.42,2.14L474,264.83l1.06-.74c2.95,1.67,5.93,3.3,8.84,5,1.66,1,3.18.6,5.05-1.52L484,265.63l.12-.8c4.09.8,6-2,8-4.63a73,73,0,0,0,3.84-6.47Z"/><path class="cls-4" d="M350.14,450c-.91-.89-1.77-1.82-2.73-2.65a40.76,40.76,0,0,1-4.41-3.68c-2.38-2.74-2.27-2.82-4.37.26-.7,1-1.47,2-2.46,3.35-.28-2.45,2.64-6.28,4.25-6.69a14.49,14.49,0,0,0,5.06-2,60.72,60.72,0,0,0,6.94-6.28,15.51,15.51,0,0,0,1.9-3.21,5.25,5.25,0,0,1,.82-1.26,171.05,171.05,0,0,0,13.18-14.27,25.06,25.06,0,0,1,6-4.53,51.43,51.43,0,0,1-3.28,5.1c-4.17,5.07-8.36,10.14-12.75,15-2.52,2.8-5.48,5.21-8.12,7.9-.56.57-.63,1.62-.92,2.45.82-.36,1.88-.51,2.44-1.12,5.72-6.22,11.35-12.52,17-18.77,1.95-2.16,3.43-5.07,7.34-4.3.83,2.25,1.79,4.87,2.75,7.5-2.51,3.34-4.89,6.95-7.7,10.17-3.17,3.63-6.83,6.81-10.07,10.38-1.53,1.68-2.56,3.8-4.28,6.43-2-2.23-4.25-4.19-5.87-6.56-2.18-3.21-3.65-4-6.57-2.53l10.1,9.31Z"/><path class="cls-4" d="M265.69,450c-2.17-3.37-4.38-6.73-6.51-10.14a19.53,19.53,0,0,1-1.41-3c-1.21-3-.3-4.7,3-5.66,2.43-.72,4.83-1.51,7-2.18,2.28,2.76,4.89,5.72,7.29,8.85,1.53,2,2.67,4.29,4.14,6.33a12.94,12.94,0,0,0,2.58,2.14L278.45,450Z"/><path class="cls-2" d="M260.22,450h-3.64c-.78-1.85-1.55-3.69-2.32-5.54l-.82.29.71,5.25H231.67a6.29,6.29,0,0,1,.72-1.53,41,41,0,0,1,14.1-10.77,4.49,4.49,0,0,0,2.84-3.53l-.07.06c.51.27,1.23.4,1.5.83C254,440,257.08,445,260.22,450Z"/><path class="cls-4" d="M401.78,450c-.56-2.22-1-4.48-1.71-6.64s-1.78-4.42-2.8-6.91l1.29-.8-1.47-4.19.69-.39c.9,1.73,1.88,3.42,2.67,5.2s1.4,3.77,2.16,5.62a17.62,17.62,0,0,0,3.08,5.37c-1.62-4.27-3.17-8.57-4.86-12.81-1.77-4.4-3.92-8.66-5.44-13.14-1.36-4-4.8-7.32-4-11.9a13,13,0,0,1,2.66,1.81,4.73,4.73,0,0,1,.71,2.22c.25,1.27-.49,3.15,2.09,2.84.37,0,1,1.09,1.3,1.78,1.14,3,1.71,6.35,3.36,9,4,6.52,6.28,13.74,9.32,20.65a22.43,22.43,0,0,1,.69,2.25h-.61q-3.68-7.82-7.34-15.62l-.22.11L407.86,450Z"/><path class="cls-4" d="M496,386.16l-15,3.15c0-4.82-.1-9.52.05-14.21a17.67,17.67,0,0,1,1.16-5.88c.35-.89,1.87-1.33,3.44-2.35-.55,5.31-1.27,9.89,1.73,14l7.22-2.82-2.26-.7,3.68-1.48Z"/><path class="cls-4" d="M249.32,434.13a4.49,4.49,0,0,1-2.84,3.53,41,41,0,0,0-14.1,10.77,6.29,6.29,0,0,0-.72,1.53H220.12l-1.8-2.66,3.34,1.13.59-.78c-.61-.52-1.24-1-1.82-1.57a14,14,0,0,1-2.53-2.52,78.5,78.5,0,0,1-5-9.19c3.39,3.74,5.11,9,11.17,11.25L222.61,442a40.61,40.61,0,0,0,6.11,2,6.77,6.77,0,0,0,4.17-.9c4-2.48,7.83-5.33,11.87-7.8C246,434.46,247.79,434.47,249.32,434.13Z"/><path class="cls-4" d="M496,251.26a36.57,36.57,0,0,0-2.65,4.58c-4.11,10.35-13.19,8.17-19.57,2.28,2.64,1.19,4.73,2.62,7,3,1.64.26,3.68-.6,5.22-1.51,1.36-.81,1.45-2.21,1.16-4.14a9,9,0,0,1,2.09-6.6c3.07-3.36,3.64-7.55,5-11.48.16-.45.24-.93.41-1.56l1.31,1.48Z"/><path class="cls-4" d="M260.22,450c-3.14-5-6.27-10-9.46-14.94-.27-.43-1-.56-1.5-.83-.4-.8-.77-1.6-1.2-2.39a3.48,3.48,0,0,1,1.58-4.28,47,47,0,0,0,4.28-2.23c3.52-1.94,7-3.9,10.34-5.75l2.1,3.12-16,8.52L261.44,450Z"/><path class="cls-4" d="M496,391c-12,1.55-23.66,3.93-33.35,11.91a26.92,26.92,0,0,1-3,1.82c-.28-1.69-.87-3.82-.61-3.93a22.17,22.17,0,0,1,4.31-1.1c2.18-1.18,3.76-2.09,5.39-2.91,3-1.51,5.9-3.4,9.08-4.35,6-1.79,12.12-3,18.19-4.48Z"/><path class="cls-4" d="M496,363.68c-12.42.85-24,4.13-33.73,12.25-1,.84-2.16,1.29-2.37,3.21-.24,2.28-4.21,3.08-5.76,1.54,11.19-12.42,25.8-17.22,41.86-18.83Z"/><path class="cls-4" d="M361.68,450c4-9.94,13.54-15.79,18.23-25.36,2.18,2.78,1.2,4.54-.66,6.61-2.57,2.86-4.64,6.16-6.95,9.25-.23.31-.69.78-.9.72-4-1.2-4.28,2.72-6,4.5-1.11,1.15-1.68,2.83-2.49,4.28Z"/><path class="cls-4" d="M496,436c-4.93-1.6-9.56.28-14.16,1.47-4.85,1.25-9.54,3.11-14.47,4.57,1.44-.85,2.83-1.81,4.33-2.54,6.71-3.22,13.32-6.75,21.13-6.42a12.79,12.79,0,0,0,3.17-.72Z"/><path class="cls-4" d="M337.38,450c1.25-1.79,2.51-3.57,4-5.75l5.69,5.75Z"/><path class="cls-2" d="M407.86,450l-4.54-15.51.22-.11q3.68,7.8,7.34,15.62Z"/><path class="cls-4" d="M385.38,450c2.64-4.29,5.85-4.29,8.5,0Z"/><path class="cls-4" d="M201.32,450,200,443.54l1.06-.3q1.67,3.36,3.35,6.72Z"/><path class="cls-4" d="M254.15,450l-.71-5.25.82-.29c.77,1.85,1.54,3.69,2.32,5.54Z"/><path class="cls-4" d="M363.57,242.84A42.49,42.49,0,0,0,375.19,247c5.56,1.06,10.69,4.43,15.94,6.92.42.2.71,1.4.53,2-2.9,9.5-5.89,19-8.84,28.46-.42,1.32-.76,2.66-1.13,4l.09-.11c-1.26,2.72-2.6,5.41-3.78,8.16-1.59,3.72-3.63,5-7.65,4.55-8-1-16.11-1.43-24-3.07-9.77-2-19.64-2.31-29.49-3.05-4.94-.37-5-.47-4.53-5.43,1.08-11.89,5.43-22.66,11.07-33,1.19-2.19,1.9-4.66,3.22-6.75,3.66-5.78,7.7-11.32,11.25-17.17,2.76-4.56,7.36-4.79,11.68-5.76,5.9-1.33,10,.43,12.68,6.4,1.55,3.4,1.35,6.53,1.38,9.86l-5.64-.38,4-1.13c-4.45-1.7-6.38,1-8.25,3.75l-.52-.59.46-3.1-2.34,1.8-1.73-2.67h-2.53v-.71l7.48-.52-12.48-.62c.09-.23-.13.85-.36.85-2.21,0-2.07,1.73-2.44,3.11a25.35,25.35,0,0,1-.87,2.54c-2.59,6.55-5.38,13-7.73,19.66-2.09,5.89.64,14,5.61,18.08l-.06-.09,2.75,5.29,5.2-3.87,3.86,2.15L346.65,283l12.09-5.8-.18-.8c-1.22,0-2.56-.32-3.62.1s-1.77,1.55-2.74,2.48l.3-2c-5-.26-7.22,1.29-6.73,4.52l-6.16,3.69-.6-.64c.62-.59,1.14-1.43,1.88-1.73,2.77-1.12,5.37-4.39,5.43-7.13l-3.29.46-.14-.69,5-1.84-.37-.85-4.56.93c5.15-2.61,5.15-2.61,6.87-1.26l-2,2.72c2.32-.82,4.59-2,7-2.34s4.84.36,7.51.62l-2.2,3.91c2.58-.61,6.23-1.2,7-3.05,2.94-6.7,4.95-13.81,7.26-20.79a11.74,11.74,0,0,0-.12-2.9l-3.76,4.83-.49-.28,2.15-6.37-8.27,3.62.39.71,3-1.17.18.41-2.05,1.77.36.56,3.53-2,.45.85-5.94,3.56.39.47,3.18-1.27.74,1-2.67,1.08.76.94,3.59-1.84c-1.6,4.24-3.19,8.45-4.7,12.43l-12.9,1.8-.11-.43,5.85-1.91c-2.62-.15-4.73-.56-6.77-.32-2.62.3-3.29-.74-3-3.06l-3.23.49-.19-.94,6.66-1.44c1.27,3.36,3.13,3.53,6.81.6l-5.45,1.18c2.5-3.28,5.89-3.33,9.58-3.34-.32-.55-.85-1.21-1.3-1.15-4.36.53-8.7,1.19-13,1.81v0l3.4-2.38-4.22.77-.16-1.18,5.74-.65.58-2.37-5.46-.74,6.16-2.38-.19-.63-5.6,1.09c.37-1.45.61-2.41,1-3.8.18,1.11.29,1.76.41,2.48l3.64-.36c-4.17-2.37-2.14-3.62,1.39-4.71l-3.41-.81c2.94-1.15,4.51-4,8.13-2.42l-3.59,3,.25.43,9.61-3.29-.24-.9-4.67,1-.24-.56Zm-3.25,5.06.21,1.37,7.18-1.23-1,1.49.43.47,3.57-2.27-.39-1.17Zm0,4.53-.3-.33,2-1.3a19,19,0,0,0-3.91-.51c-.43,0-.8,1.11-1.2,1.71l5.89,2.32v-2.49Zm-6,7.85c1.93-3.27,4.61-4.16,9.28-2.39a9.43,9.43,0,0,0-.67-1.84,59.16,59.16,0,0,0-7.81,1.4C354.61,257.59,354.56,259.3,354.32,260.28Zm11.29,6.37c-4.67-.65-5.64-.06-5.66,3.14Z"/><path class="cls-4" d="M336.41,111.13c.87-2.93.66-4-1.24-5.92l1.23-1.62c-.77-1.24-3.6-1.94-.52-3.67.5-.28-.07-2.48-.28-3.89l-.94-6.78,1.93.36.42-2c.24,5.27.47,10.29.72,15.79l11.59,2.67.16-.58-10-2.67c2.31-2.76,8.51-3.15,12.21-.72-.79-3-1.53-5.79-2.28-8.61l.59-.19c1,3.16,2.06,6.32,3.11,9.52,3.91-1.8,10.58,3.07,12.21,9.4l-9-3.4c3.08,3.94,4.1,8.58,7.53,11.56l.76-.49-.48,3.23L357,133.81c2.68-.49,6.83-5.67,7.61-10.21l1-.82c.17,9-5,14.2-15.56,16.12,1.57,0,3.13.08,4.69,0a16,16,0,0,0,4.66-.69c1.53-.6,2.83-1.77,4.68-3-.62,3.13-.08,5.34-2.32,8.13-7.86,9.76-19.44,12.75-29.71,18.14a31.14,31.14,0,0,1-17,3.44,8.32,8.32,0,0,1-7.35-4.42c-2.79-4.9-5.69-9.75-8.7-14.51a52.56,52.56,0,0,1-8.36-26.83c-.07-2.1-.44-4.19-.7-6.47l2.74.86a72,72,0,0,1-2.47-8.14c-.85-4.62-1.35-9.3-2-14a16.29,16.29,0,0,1-.41-4.72,8.52,8.52,0,0,1,2-4c.44-.49,2-.44,2.8-.07,2,.92,3.78,2.17,6.33,3.69l-9.5,2.55.07.59,3.8.7-.14.94-3.84-.35c1,2.61,2.56,5,2.85,7.57.27,2.35.49,4.35,2.36,6s3.69,3.71,5.78,5.22c1,.72,2.6.72,3.94.83s2.5-.37,2.48-2.14c0-.17,1-.35,1.95-.68L306.51,106c.7-.53,1.27-1.28,1.93-1.37.86-.1,2.43.1,2.59.55.84,2.51,2,5.08.35,7.79-1.42,2.37-2.67,4.85-4,7.28l.84.49,4.55-7.74,6,8.66h0L323.9,128l.74-.42c-4.1-5.68-5.26-12.3-6.25-19l15.09,26.28.9-.48-4-9.88.51-.32,11.86,12.19c-1.36-6.53-4.21-11.94-3.22-17.7l9,4.07.52-1.11-3.86-2.36c4.39.44,4.45.49,5.15,3.77,1.74-3.54,2.87-1.19,4.4.93.15-2.07.25-3.43.33-4.57l-3.25-1.1.21-.79,2.13.26c.32-1.07.66-2.17,1.13-3.74l3.17,2.35c0-3.24-3-7.31-5.68-7.94-3.81-.89-7.59-1.92-11.43-2.62-2.2-.4-4.35-.17-4,3.13.07.67-.6,1.42-.93,2.13Zm-32.09,33.7c4.77,4,11.19,4.59,16.85,8C319.62,148.84,309.74,144.18,304.32,144.83Zm10.43,8.72-8.21-4.29c1.78,4.31,3.87,5.37,8.24,4.29Zm-9.34-30.05c-2.87,2.2-2.25,4.87-1,7.44.49,1,1.62,1.71,2.46,2.56l.69-.63c-1.24-3-4.24-5.58-2.12-9.37ZM359.73,117l-1,0c-.37,1.14-.75,2.28-1.12,3.41l4.7.36Z"/><path class="cls-4" d="M300.65,229.66v-3.6l2.14,1.29c1-3.16,2-6.43,2.79-8.77L286.26,224l1.87-4.46a37.18,37.18,0,0,0-18.81,4.27l.11.78,8.54-1,.13.27-4.78,1.39c-4,1.17-7.92,2.43-11.93,3.44-.95.24-2.09-.33-3.15-.53l-.17-1-3,3.83-.66-.48,1.1-2.36L246.67,235l-4.15-1.38c6.27-5.21,13-7.07,20.75-8.28l-2.15-1.38c.79-.23,1.38-.45,2-.58,1.81-.37,3.84-.3,5.42-1.12A41.71,41.71,0,0,1,286,217.78c5.38-.28,10.72-1.17,16.1-1.67,2-.18,4,0,5.72,0a56.53,56.53,0,0,1,4-5.61c3-3.28,3.55,1.55,5.8,1.6-10.78,14.83-16.84,31.6-23.64,48a124.24,124.24,0,0,0-5.24,16.3c-.53,2.05.22,4.42.34,6.65a13.41,13.41,0,0,1-.06,2.37c-.48,4-.92,8-1.53,12-.17,1-1.25,2-1.29,3a7.09,7.09,0,0,0,1,3.5C288.35,306,289.76,308,291,310c.18.3.14.73-.47,1.47-2.93-4.73-5.87-9.46-8.94-14.4l-12.88,5.59c2.5-6,8.33-4.42,12.26-6.52l-.19-.77c-2.38.37-4.78.65-7.13,1.14-3.65.76-7.27,1.72-10.92,2.49-5.09,1.06-8.74-2.49-7.35-7.56,2.1-7.67,4.37-15.32,7.09-22.8s6.17-14.4,9-21.7c1.58-4,4.07-6.74,8.2-8.12,4.46-1.5,8.81-3.32,13.29-4.77,1.07-.34,3-.17,3.52.51.58.86.39,2.62-.06,3.77C291.3,251.63,286.66,265,283.89,279a6.35,6.35,0,0,0,.1,1.57c3.67-11.34,7.14-22.49,10.92-33.53,1.72-5.05,4.09-9.88,6.12-14.83.36-.87,1.56-2-.37-2.59Zm-15.39,55.81c-2.17.7-3.68,5.82-2.37,7.35a1.12,1.12,0,0,0,1,.28,1.58,1.58,0,0,0,.75-1c.26-2.14.42-4.35.62-6.63Z"/><path class="cls-4" d="M316.57,216.29l1.62-4.24c8.12-1.38,16.31-3,24.57-4.1,6.29-.83,12.85-2.07,19-1.12,10.78,1.68,21-1.74,31.56-1.64a75.78,75.78,0,0,0,10.65-.45l-1.64-.49,6.84-14.15,2.57,3.45-.75.66,3.72.52,1.64-1.5c.77,2.66-1.23,6.54-3.53,7.26-.35.1-.86.8-.78.92.31.51.83,1.32,1.24,1.3,5.89-.34,11.77-.89,17.67-1.13,1.21,0,2.47,1,3.7,2H407.21v.87h49.11c.27,1.15.5,2.11.87,3.69-4.5-2.71-8.83-1-13.12-1.07-3.49,0-7-1.26-10.48-1.27-10.11,0-20.22.24-30.33.52-1.27,0-2.53.86-3.8,1.31a4.79,4.79,0,0,1-1.33.42c-5.32.21-10.65.34-16,.6-7.22.34-14.44.76-21.66,1.19a5.07,5.07,0,0,1-2.81-.16l2.88-1.47-7.09.5c.32,1,.56,1.79.62,2L352.72,212c-4.75.67-9.07,1.18-13.35,1.9-6.26,1.06-12.47,2.37-18.73,3.35C319.4,217.41,318,216.64,316.57,216.29ZM341,211l-.16-1.19-18.75,3.94.21,1.06Z"/><path class="cls-4" d="M471.42,233.87v3.28l-4.44.29c0,2.4,0,2.4,2.77,2.65l-2.24.22c-.14.79-.27,1.54-.46,2.65-.8-.6-1.58-.88-1.81-1.41-.88-2-1.47-4.15-2.39-6.15a20.07,20.07,0,0,0-2-3c-1.72,1-2.73,2-3.58,1.93-1.28-.18-2.37-5-1.32-5.89.59-.48,1.9-.08,3.63-.08.28-3.74.6-8,.93-12.21-3.89-1.1-.79-3.55-1.27-5.31l.63-.61,3.66,2.71c.28-1,.6-2.08.88-3.06L459.2,208l4.06-3.33c1.61,2.8,3.91,1,6.2-.76v.93l-1,1.36,3.14.47-1.67.18-.17.71,4.56,1.44c-.54,3.7-1.19,8.14-1.87,12.76h-5.59l-.09.71,4.63.49v.21l-4.58.31v.46l5.31.7-.09.93h-6.27l0,.86,5.34.24v.3H466v.66l4.36.27c-1.21,1.09-4.75-1.49-4,2.8h4.72c.2,2,.2,2-4.47,2.48v1.75h3.54l.58-.52-2-.47Zm-6.19-10.26c.73-5.44,1.42-10.61,2.11-15.79l-.91-.25c-1.07,3-2.13,6.06-3.11,8.87L463,215l-.7.06v8l.51-1.64Z"/><path class="cls-4" d="M452.37,218.46l-17.52,1.39.1.62c4.65.63,9.29,1.32,13.94,1.86,3.24.38,3.84.85,3.67,4-2.75,0-5.55-.11-8.34,0-6.24.31-12.49.63-18.71,1.23-1.53.15-2.92,1.47-4.44,2.09a48.23,48.23,0,0,1-5.08,1.73c-4,1.18-7.81,2.73-10.56,6.15a3.59,3.59,0,0,1-2.43.87c-.31,0-1.08-1.24-.93-1.51a5.57,5.57,0,0,1,2-2.17c4-1.94,8.14-3.72,12.5-5.69l-3.85-1.68,12.38-4.81-.37-.93L402,230.71C407.8,222.88,446.53,213.38,452.37,218.46Z"/><path class="cls-4" d="M311.7,235.82a26.17,26.17,0,0,1-.34,5c-3.14,12-6.45,23.94-9.55,35.95-.73,2.81-.64,5.82-1.32,8.65-.46,1.88-1.69,3.57-2.43,5.41a23.57,23.57,0,0,0-.85,3.53l-3.95.35c-.45-5.91-1-11.62,1.2-17.23,5.3-13.6,10.52-27.22,15.79-40.83a4.66,4.66,0,0,1,.47-.77Z"/><path class="cls-4" d="M427.56,235.32c2,5.09,3.8,9.41,5.43,13.79.63,1.67.76,3.51,1.38,5.17a39.54,39.54,0,0,0,2.89,6.1c.3.52,1.59.71,2.37.62,4.18-.45,8.33-1.1,12.51-1.56,2.26-.25,4.54-.27,6.81-.39l.06.85a65.65,65.65,0,0,0-6.72.53c-4.35.77-8.66,1.8-13,2.66-3.62.73-3.6.26-4.79-3.32-2.37-7.12-5.27-14.06-8-21.08-.38-1-.79-2-1.19-3-.93,2.24,5.39,21.65,8.82,27.08-.93,3.46-4,4.36-6.71,5.89s-5.05,3.28-7.8,4.59c2.75-3.12,5.75-6,9.88-7,2.51-.63,3.26-1.85,2.46-4.06-1.73-4.83-3.63-9.61-5.42-14.42-1.05-2.82-1.86-5.73-3.12-8.45a5.85,5.85,0,0,0-3-2.76c-.7-.25-1.94.92-2.89,1.52-.32.19-.45.7-.77.87-4.21,2.25-8.44,4.46-12.86,6.55,1.66-1.35,3.3-2.74,5-4.05,2.69-2.09,5.36-4.22,8.17-6.15a11,11,0,0,1,3.37-1c1.4-.38,2.84-.67,4.22-1.12,3.47-1.12,6.84-2.78,10.4-3.35,4.54-.73,9.22-.64,13.84-.8.81,0,2.13.26,2.34.76.29.7-.25,1.74-.44,2.65a42.83,42.83,0,0,0-6.82-1.25c-1.55,0-3.84-1.28-4.62,1.52-.05.2-.78.39-1.12.31C434.56,232,431.91,234.8,427.56,235.32Z"/><path class="cls-4" d="M334.67,335.45c2.67-8,5.35-15.74,7.8-23.59.28-.89-.74-2.2-1.18-3.39-.15.08,0-.08.15-.08,6.1.22,7.53-.79,4.32,6.55a70.77,70.77,0,0,0-2.44,8.32,1.41,1.41,0,0,1-.21.56c-2.65,2.79-2.65,6.6-3.79,10a5.49,5.49,0,0,1-6,4.1c-5.33-.35-10.64-1-15.93-1.78-1.59-.24-3.06-1.33-4.8-2.13,0-10.11,5.88-18.08,11-26.32.31-.5,1.81-.27,3.22-.43a22.16,22.16,0,0,1-1.59,3.38c-4.39,6-6.4,13.05-8.91,19.88-.66,1.78-.58,2.42,1.88,2.49,4,.11,8,1.13,11.95,1.77Z"/><path class="cls-4" d="M429.87,153.35c1.2-.92-.28-4.64,3.22-3.28a12.75,12.75,0,0,0,4.64.41c1,0,1.92-.63,2.87-.6,3.24.08,6.57-.06,9.69.63s6.19,2.28,9.24,3.57c.57.24,1.44,1,1.36,1.33a2.83,2.83,0,0,1-1.41,1.61c-2.73,1.27-5.11,3-8.71,2-2.58-.71-5.68.54-8.56.84-.68.07-1.91,0-2-.25-1-3.59-5.25-3.1-7.14-5.64C432.6,153.33,431,153.54,429.87,153.35Z"/><path class="cls-4" d="M291.25,80.83c5.27-5.51,10.34-10.44,16.89-13.57.34,8,.66,15.42.94,22Z"/><path class="cls-4" d="M468.32,268.39q2.61,5.94,5.2,11.89c5.14,11.73,10.31,23.44,15.39,35.2,1.26,2.92,2.21,6,3.47,9.41-.89-.3-1.57-.32-1.71-.6-2.7-5.68-5.34-11.39-8-17.09-.64-1.37-1.29-2.74-1.92-4.11a19.32,19.32,0,0,0-3.72-4.94c-2.35-2.54-3.88-6-5.12-9.36-2.06-5.56-3.67-11.3-5.36-17a10.87,10.87,0,0,1,0-3.12Z"/><path class="cls-4" d="M399.82,211.52l21.5-4.31c0,.73.06,1,0,1-1.6,1.28-3.88,1.51-5,3.69-.29.55-2.52.08-4.62.08-.62,2.11-1.63,5.11-2.35,8.17-.63,2.71-5.73,8-8.42,8.17-1.73.12-2.62-.89-2.44-2.66C398.87,220.89,399.32,216.1,399.82,211.52Z"/><path class="cls-4" d="M272.37,411.64l.07-1.43.52-.15q2.71,6.17,5.44,12.34l-.37.19q-1.2-2.19-2.38-4.38c-.59,3.17,2.67,8.78,5,10a4.87,4.87,0,0,1,1.47,1.75c2.6,4.19,5.16,8.42,7.78,12.61a12.71,12.71,0,0,0,1.61,1.75c-1.42,2.17-2.78,2.53-5,.7-5.27-4.26-8.29-10.14-11.55-15.76-2.21-3.81-3.46-8.2-4.94-12.4a15.26,15.26,0,0,1-.53-4.71A20.2,20.2,0,0,1,272.37,411.64Z"/><path class="cls-4" d="M313.32,25.24c-7.1-.56-10.7,4-13.85,9.34a36.9,36.9,0,0,1-3.15,3.91c-.58.72-1.05,1.52-1.58,2.28h0c-2.32-2.81-.42-5.13.58-7.81,1.73-4.45,3.66-8.65,8.41-10.45,5.93-2.24,11.94-4.29,18-6.22a60.35,60.35,0,0,1,7.3-1.43l.47,1.1c-2.42,1.37-4.7,3.4-7.29,3.94-3.14.66-5.12,2.55-7.33,4.37V20.08a30.29,30.29,0,0,0-2.27,2.12c-.46.56-1.13,1.3-1,1.85S312.7,24.86,313.32,25.24Z"/><path class="cls-4" d="M453.65,161.27c2.4-1.34,4.84-2.5,7.64-2.23l.53,1-5,3.31c1.94-.1,4,.37,3.76,2.66-.28,2.82,1.51,6-1.34,8.43l-1.21.21-7.71,1.5c-.12-1.18-.2-2-.28-2.92-1.14-1.26-2.44-2.68-3.72-4.11-.06-.06,0-.26,0-.37.9-2.19.91-2.19-2.3-3.29l3.65-.77c.09-2.79-1.71-1.94-3.28-1.79q-2.1.1-4.2,0v-1.71h13.5l-3.66,2.3-1-1.23-.68.48c.59.74,1.14,2,1.79,2.1,1.52.11,3.42.07,4.53-.76S456.43,161.3,453.65,161.27Z"/><path class="cls-4" d="M282.65,66.07,278,69.83c-.09-.21-.29-.63-.21-.46l-5.08,1.23c-3.23,2.64-3.36,8.19-8.33,9.93A93.52,93.52,0,0,1,280.32,48l-3.86,10.89.54.34L280.23,56l.48.18-3.36,9.9.34.28,6.45-7.51-1.6,7.33Z"/><path class="cls-4" d="M383.05,126.49c.93.6,2.47,1.87,2.69,1.68,1.3-1.16,3-2.55,3.21-4.07.35-2.14.44-4,2.26-5.58.67-.59.35-2.57.12-3.85a42.61,42.61,0,0,0-1.66-5.17l-8.58,10.68-.76-.32c.8-2.11,1.24-4.49,2.49-6.29a73.37,73.37,0,0,1,6.42-7.23c.91-1,2.19-1.8,2.75,0,1.82,5.83,4.62,11.5,3.65,17.87a5,5,0,0,1-1.6,2.92c-1.79,1.46-3.91,2.5-5.76,3.89s-3.45,1.74-5.36.45l.11.11-2.83-5.2,2.93.16Z"/><path class="cls-4" d="M232.8,377.35c-.88,5.55-7.14,9.39-5,16.32l3.56-1.45v5.45l-1.3-2.84c-3.1,4.21-.55,8.39-1.48,12.7l2.81-1.28c1.4,4.33,2.64,8.57,4.16,12.7a65.42,65.42,0,0,0,3.77,8.1c1,1.85,1.28,3.35-.56,4.59-4.31-.52-6-2.83-5-7,.09-.4-.38-.91-.53-1.39-2.51-8.06-5.17-16.08-7.46-24.21-1.52-5.4-.16-10.48,2.81-15.21a48.49,48.49,0,0,0,2.1-4.58,26.33,26.33,0,0,1,1.42-2.33Z"/><path class="cls-4" d="M307.24,307H316c-3.34.92-6.16,1.78-9,2.46-1.86.44-3.7.6-3.76-2.27,0-.66-.69-1.3-.94-1.74,1.31-2.15,2.57-4.19,4.16-6.77a28.61,28.61,0,0,0,2.75,2.15,4.41,4.41,0,0,0,2,.32c7.65.57,15.32.92,22.93,1.77,3.89.43,7.84,2.87,11.48,2.36s6.3.73,9.45.74l.1.86a6.93,6.93,0,0,1-2.28.6c-6.08-.59-12.15-1.34-18.23-1.93-5.61-.55-11.23-1.19-16.85-1.34-3.17-.09-6.36.71-9.53,1.16a8.83,8.83,0,0,0-1.66.58Z"/><path class="cls-4" d="M287,35.85C276.74,49.4,267.51,63.48,262.52,80.1a23.45,23.45,0,0,1,3.93-19.57c5.7-8,12-15.62,18-23.38a17.86,17.86,0,0,1,1.87-1.82Z"/><path class="cls-4" d="M388.94,317.64l3.48-1c0,.83-.07,1.53-.12,2.6a28.78,28.78,0,0,1,3.43-1.7A19.59,19.59,0,0,1,399,317c1.1-2.38,20.9-18,23.95-18a31,31,0,0,1-3.33,4.07c-7.17,6.19-14.43,12.28-21.65,18.41-.7.58-1.36,1.21-2.06,1.78-3.18,2.57-4.27,2.18-5-1.78l-4.29-1.31,2.47-2.6Z"/><path class="cls-4" d="M349.32,99.7,338,97.12,340.73,78l.51.17Q345.32,89,349.32,99.7Z"/><path class="cls-4" d="M280.26,418.49c-2.06-3.91-1.58-5.12,1.32-6.9s5.17-4.16,8.05-5.65c4.11-2.11,8.5-3.66,12.79-5.38,1.59-.63,3.28-1,4.88-1.59.32-.12.44-.74,1.08-1.92l3.86,1,.61,1.21c-.56.2-1.15.36-1.69.61-8,3.66-16,7.29-24,11C284,412.38,281.06,414.14,280.26,418.49Z"/><path class="cls-4" d="M396.86,270.58c2,2.08,1.87,4.13.89,6.46-.9,2.13-1.34,4.44-2.14,6.61q-2.26,6.14-4.71,12.19c-1.24,3-2.59,6-3.91,9.05a6.3,6.3,0,0,1-1.26,2.35,2.7,2.7,0,0,1-2.37.39c-.59-.31-.84-1.39-1.08-2.18-.08-.3.25-.75.45-1.09,2.25-3.89,4.67-7.69,6.71-11.68a51.67,51.67,0,0,0,2.68-7.45C393.71,280.39,395.26,275.53,396.86,270.58Z"/><path class="cls-4" d="M488.32,189.19c-1,.76-2.42,1.33-2.78,2.31-2.35,6.35-5.46,12.65-6.44,19.24-1.63,11-1.87,22.29-2.66,33.45-.11,1.6,0,3.21-.23,4.81.09-12.53-1.11-25.09,1.63-37.54,1.28-5.81,1.84-11.79,3.05-17.62a21,21,0,0,1,2.94-6.78c.51-.81,2.35-1.14,3.5-1,.54.06.87,1.78,1.29,2.75A2.79,2.79,0,0,1,488.32,189.19Z"/><path class="cls-4" d="M484.93,223.45c.41.1,1.18.21,1.18.32,0,8-.23,15.9-5.27,23.87-.77-1.75-1.67-2.87-1.69-4,0-3.52-.18-7.14.6-10.52.56-2.44,2.53-4.56,3.83-6.84.54-.94,1-1.95,1.45-2.93Z"/><path class="cls-4" d="M469,193.13l2-5.42c-4.8,3.25-5.28,4-6.06,10.26-.39,3.07-1.39,3.81-4.66,2.85,1.71-5.45,3.25-11,5.24-16.29.53-1.41,2.42-2.32,4.3-4V185l3.7-2.49.68.85-1.63,2.56,1.4.67Z"/><path class="cls-2" d="M211.84,366.21c-3.19-.49-4.77-2.59-3.72-5.48,1.3-3.58,3-7,4.42-10.56,1.1-2.69,2-5.46,3.14-8.14a6.91,6.91,0,0,1,1.54-1.74,6.54,6.54,0,0,1,.79,2.44c-.23,2.29-.72,4.55-1.11,6.82Q214.32,357.88,211.84,366.21Z"/><path class="cls-4" d="M390.32,237.57l-5.47,1.81c-4.48,1.5-8.89,3.28-13.48,4.35-1.52.35-3.65-.84-5.1-1.88-.49-.34.14-2.48.51-3.72.87-2.87,1.84-5.73,2.91-8.53.21-.56,1.06-.87,1.62-1.29l.6.67c-1.13,2.78-2.3,5.55-3.39,8.34s-.4,3.88,2.79,3.7a9,9,0,0,0,2.62-.58c4.18-1.47,8.37-2.94,12.51-4.51C388.81,235,390.09,235.65,390.32,237.57Z"/><path class="cls-4" d="M316.19,396.21,313.53,398c-.46-2.59-.49-2.76,1.68-3.16,10.19-1.89,20.38-3.86,30.63-5.42,6.17-.94,12.45-1.21,18.68-1.72a11.7,11.7,0,0,1,4.77.54l-53.41,6.68Z"/><path class="cls-4" d="M311.07,97.81l-1.81-5-.76.24c.93,3,1.87,5.93,2.7,8.56L295.8,88.83c3.39-.93,7.43.61,11.52,1.59C309.69,91,311.11,93.62,311.07,97.81Z"/><path class="cls-4" d="M312.53,268c1.84-9.52,4.6-18.45,15-23.42C322.32,252.78,317.4,260.39,312.53,268Z"/><path class="cls-4" d="M420,281.08c.47-1.29.55-2.38,1.13-2.94A42.39,42.39,0,0,1,446.48,266c3.64-.39,7.29-.57,10.94-.85l.24,1.22a8.33,8.33,0,0,1-2.6.64c-8.46-.75-16.18,1.94-23.47,5.64C427.68,274.57,424.39,277.8,420,281.08Z"/><path class="cls-4" d="M349.32,301.13c-5.82-.48-11.64-.88-17.45-1.47s-11.57-1.39-17.31-2.43c12-2.87,23.15,2.11,34.75,2.92Z"/><path class="cls-4" d="M479.69,217.77c1.73-7,3.45-14,5.31-21.48,4.77,9,.4,15.41-4.38,21.68Z"/><path class="cls-4" d="M488.32,189.19a2.79,2.79,0,0,0,.3-.38c.63,1.48,1.25,3,1.87,4.43,0,.08-.08.25,0,.29,2.56,2.76,1.14,6.31,1.64,9.43.57,3.59-.12,7.38.28,11.19.58-3.56,1.17-7.11,1.78-10.85,1.45,2.64.76,9.39-1.58,14.3a17,17,0,0,1-1.29-3.37c-.51-4-1.72-8.14-1.06-11.95.72-4.21-1.2-7.19-2.38-10.63C487.59,191,488.12,190,488.32,189.19Z"/><path class="cls-4" d="M485,223.34l-2.47.91c-.18-.55-.37-1.09-.56-1.64l-2.11,2c-.3-2.5,2.25-7,5.42-9.18,1.1-.78,2.15-1.63,2.78-2.11,2,5,4.12,10.49,6.28,16l-.14.12-7.63-12.9-1.67,2,1.58,2c-.55,1-1.07,2-1.58,3Z"/><path class="cls-4" d="M380.08,243.67c.82-1.15,2.1-1,3.89.06a104.13,104.13,0,0,1,19.52,14.1c.94.88,1.79,1.85,2.68,2.77-1-.71-2.06-1.46-3.11-2.14Z"/><path class="cls-4" d="M372,128.18c1.62,5.25-1.8,11.35-6.52,12.23-.31-3.24-.62-6.3,2.91-8.34C369.74,131.27,370.66,129.62,372,128.18Z"/><path class="cls-4" d="M313,240.75c.56,8.46-2.68,19-6.2,22.1l-.81-.26Q309.49,251.67,313,240.75Z"/><path class="cls-4" d="M277.44,130c-.67-4.39-1.34-8.78-2.11-13.87l2.14,1.39.4-3.93c2.49,4,2.44,11.32.58,16.21Z"/><path class="cls-4" d="M385.57,413.73c2.93,7.63,5.86,15.25,8.73,22.89,0,.14-.66.56-1.36,1.13-3.12-8-6.14-15.66-9.17-23.37Z"/><path class="cls-4" d="M385,285.87c.06-1.08-.31-2.61.26-3.14,2.44-2.3,1.74-5.71,3.26-8.27,1-1.68,1.94-3.4,2.91-5.1l1.15.5c-1.56,4.68-3,9.41-4.76,14-.33.88-1.92,1.27-2.92,1.89Z"/><path class="cls-4" d="M318.75,121.65a28.59,28.59,0,0,0-1.49-3.17c-4.36-7.14-6.23-14.72-4.86-21.39a34.83,34.83,0,0,0,.66,6.44c.58,2.1,2.11,3.93,2.73,6,1.18,4,2,8,3,12.08Z"/><path class="cls-4" d="M411.88,257.15c.32,1.89.29,3.28.83,4.4s1.61,1.83,2.61,2.9l1.14-.34c.34,1.84.67,3.6,1.08,5.77-2.37-3.2-4.8-5.84-6.48-8.91a99.34,99.34,0,0,1-5.1-11.92c-.21-.55.63-1.5,1.38-3.1C408.47,250.74,408.64,254.9,411.88,257.15Z"/><path class="cls-4" d="M283.32,171.11l5-2.76c-1.48,2.42-2.92,5.15-4.73,7.61a35.58,35.58,0,0,1-6,6.14c-.26-4.91,3.46-7.64,5.78-11.1Z"/><path class="cls-4" d="M408.46,293.13c-7.82,13-13,18.62-16.52,18.39Z"/><path class="cls-4" d="M383.05,126.49l.08.05-3.37-1.84c1.58-1,3.53-1.65,4.49-3s.59-3.19.87-5.25l3.28,2.21-.95,6.34Z"/><path class="cls-4" d="M464.39,257.2c-2.46-.36-3.4-1.62-3.42-4.46,0-3.79-1-7.58-1.46-11.37a23.38,23.38,0,0,1,0-2.9l1-.14C461.8,244.63,463.1,251,464.39,257.2Z"/><path class="cls-4" d="M303.08,105.32l-3.17-.78,1.38,2c-3.14-.5-5-3.51-6.23-10.27,3.07.4,4.55,2.21,5.24,5.16C300.59,102.67,301.86,103.68,303.08,105.32Z"/><path class="cls-4" d="M289.54,292.89c2.31,4.48,1.41,10.2,5.89,14.05l-1.94,2.72h-1.17A45,45,0,0,1,289.54,292.89Z"/><path class="cls-4" d="M476.81,381.44c.53-.37,1.05-.72,2.11-1.47h-3.86l-.07-.33,4.73-1.37a80.48,80.48,0,0,1-.81,9.3c-.65,3.28-3.16,4.31-6.61,3.08l6.31-3.4-2.93-.3,2.95-1.8Z"/><path class="cls-4" d="M406.16,175c-1.07,1.06-2.21,2.75-3.79,3.61a59.72,59.72,0,0,1-8.88,3.67c-.45.16-1.31-.83-2.55-1.68Z"/><path class="cls-4" d="M323.77,226l-4.91,5.16.6.66-6-1c1-2.37,1.88-4.43,5.26-3.94,1.48.21,3.16-.94,4.74-1.48Z"/><path class="cls-4" d="M321.15,93.47V90l-.48-.07-.54,2.7h-.55V81.19l3.64.33c-.56,4.12-1.11,8-1.65,12Z"/><path class="cls-4" d="M475.69,218.46c0,10.94-2.34,21.93-.47,32.52C472.9,248,472.9,243.78,475.69,218.46Z"/><path class="cls-4" d="M388,441.31c-1.81-.16-3.93-3.54-4.22-5.89a55.7,55.7,0,0,0-1.39-5.7c0-.05.54-.76,1.52-2.1Z"/><path class="cls-4" d="M394.14,314.84l12.45-12.53.45.34c-3,3.83-5.9,7.73-9.05,11.43C397,315.2,395.47,316.16,394.14,314.84Z"/><path class="cls-4" d="M221,440.84l-6.54-13.71.71-.35C218.32,430.88,221.62,434.9,221,440.84Z"/><path class="cls-4" d="M458.07,174.61l1.21-.21,4.05.75-.06,1.29c-4.62.41-8.84,3.24-14.17,1.86Z"/><path class="cls-4" d="M357.9,96.68c-3.42-.21-6.36-3.08-6.28-5.87,0-.47.63-1.34.85-1.3a2.73,2.73,0,0,1,1.68.95C355.42,92.38,356.54,94.39,357.9,96.68Z"/><path class="cls-4" d="M368,218.54c1.26-6.43,1.64-7,4.48-7.26C372.17,217.23,371.14,219,368,218.54Z"/><path class="cls-4" d="M374.77,201.41c.83-1.78,1.64-3.57,2.58-5.29a11.87,11.87,0,0,1,2.1.65l1.83-2.34c.23,2.79,0,3.12-5.54,7.41Z"/><path class="cls-4" d="M389.77,417c2,5,4,10.16,6,15.27l-.54.22-7.8-17.83.52-.8c.79.26,1.86.32,2.29.87C390.54,415.14,390,416.2,389.77,417Z"/><path class="cls-4" d="M459.09,262.56,439.16,265C445.88,262.58,452.32,261,459.09,262.56Z"/><path class="cls-4" d="M329.11,95.67l2.4-20.78.8.09Q331.16,85.39,330,95.8Z"/><path class="cls-4" d="M332.14,45.35l-1.23,10.83-2.53-1.5c.91-3.29,1.78-6.47,2.66-9.65Z"/><path class="cls-4" d="M332.82,8.18l-5,.81L329,10.6c-5.63-1.45-9.14,3.28-13.88,4.12C320.47,11,325.9,7.59,332.82,8.18Z"/><path class="cls-4" d="M312,71.64V89C309.22,83.3,310.69,77.77,312,71.64Z"/><path class="cls-4" d="M380,135.36c-2.09-.49-3.92-.37-4.59-1.19-1.87-2.32.66-3.62,1.86-5.8C378.18,130.67,378.89,132.48,380,135.36Z"/><path class="cls-4" d="M294,270.9l5.7-17.87,1.1.35q-3,8.87-6.05,17.71Z"/><path class="cls-4" d="M409.06,187.67c-1.82,3.36-3.64,6.73-5.72,10.56l-1.6-3,7-7.81Z"/><path class="cls-4" d="M263.13,215.53l21.71-4.34.17.87-21.75,4.38Z"/><path class="cls-4" d="M462.94,186.05l-4.73,15.34-1.06-.34,4.86-15.3Z"/><path class="cls-4" d="M267.77,299.72c-3,4.3-3.92,4.45-9,1.35Z"/><path class="cls-4" d="M316.8,66.77c0,1.84-.12,3.69,0,5.52.34,4.16.83,8.3,1.25,12.46l-1,.07q-.44-9-.86-18Z"/><path class="cls-4" d="M314.52,77.38V95.79H314V77.38Z"/><path class="cls-4" d="M346,117c-1.27-.23-2.53-.46-3.79-.71-.81-.17-1.7-1.73-2.37.15-.42-.3-1.21-.64-1.19-.89a28.9,28.9,0,0,1,.73-3.32c.71.21,1.6.23,2.07.69a5.28,5.28,0,0,1,.88,2l3.88,1.23Z"/><path class="cls-4" d="M300.6,296.54c-5.64,3.29-7,3.2-7.3,0Z"/><path class="cls-4" d="M289.23,41.16l-3.53.66L291,33.37l.68.34-2.49,7.52Z"/><path class="cls-4" d="M350.45,310.25c4.2-1.36,8.24.78,12.38.8v.75l-12.26-.72Z"/><path class="cls-4" d="M291.13,77.19c.83-5,7.54-4.69,8.61-7.76Z"/><path class="cls-4" d="M376.11,123.56c1.85,2.69.13,4.56-2.53,6.21q.72-3.23,1.45-6.45Z"/><path class="cls-4" d="M443.92,211c-2.16,1.92-3.77,1.83-5.7-.12-1-1-2.92-.87-4.28-1.91Z"/><path class="cls-4" d="M301.43,288l1.89-13.28.68.09-1.46,13.35Z"/><path class="cls-4" d="M301.72,248.55l6.9-15.4.61.27q-3.37,7.74-6.73,15.5Z"/><path class="cls-4" d="M460.53,388.14l10.08-4.28c-2,4.85-7.19,2.35-9.7,5.25Z"/><path class="cls-4" d="M341.14,166.3l5.33-4.45,2.29,1.52-7.21,3.49Z"/><path class="cls-4" d="M329.47,109.66V98.77l.29-.07c.21,3.63.42,7.27.62,10.9Z"/><path class="cls-4" d="M336.38,111.1c2.66,3.5.2,7.38.62,11.06-.39-2.91-.85-5.82-1.14-8.75a7.14,7.14,0,0,1,.56-2.27Z"/><path class="cls-4" d="M468.7,289.45q-1.9-6.34-3.83-12.7l.65-.2q2,6.31,4.07,12.63Z"/><path class="cls-4" d="M282.55,66.17l2.29-1.86c1.27,5.23-3.2,6.67-5.53,10l3.34-8.23Z"/><path class="cls-2" d="M313.32,25.24c-.6-.38-1.63-.69-1.71-1.15s.58-1.29,1-1.85a30.29,30.29,0,0,1,2.27-2.12v4.19C314.32,24.63,313.83,25,313.32,25.24Z"/><path class="cls-2" d="M364.59,123.6c-.78,4.54-4.93,9.72-7.61,10.21l7.16-10.69Z"/><path class="cls-4" d="M301.45,310.05c-1.45-1.57-2.42-2.25-2.83-3.18-.34-.76,0-1.81,0-2.73.95.21,2.61.25,2.71.68C301.67,306.21,301.45,307.74,301.45,310.05Z"/><path class="cls-4" d="M475.58,202.38c-1.88-1.27-5.08.87-6.24-2.67C475.77,199.83,475.85,199.87,475.58,202.38Z"/><path class="cls-4" d="M383.42,418q1.54,5,3.1,9.94c-.78-3.41-5-5.66-4-9.67Z"/><path class="cls-4" d="M247.51,252.78l2.63-10C251.32,246.54,249.86,251,247.51,252.78Z"/><path class="cls-4" d="M389,317.53l-3.15,1.11-.57-.68,4.8-4.87,1,.73L389,317.61Z"/><path class="cls-4" d="M382.92,131.47l.75,1.71-2.75,1c-.65-1.9-1.23-3.62-2-6l4.15,3.4Z"/><path class="cls-4" d="M420.51,178.07c3-3.85,4.59-4.34,7.64-3Z"/><path class="cls-4" d="M272.91,311.86l6.51-.81.09.88C277.07,314,274.56,314.24,272.91,311.86Z"/><path class="cls-4" d="M280,304.62c2.85-1.64,4.33-.67,5.54,3.8Z"/><path class="cls-4" d="M452,183.64l8.68-1.51C456.76,185,453.81,185.52,452,183.64Z"/><path class="cls-4" d="M398.11,210.87l-2.33,10.06-.74-.14,1.89-10.18Z"/><path class="cls-4" d="M356.93,41.43c.46,1.23.91,2.46,1.37,3.68l-2.47.48c-.08-1.3-.16-2.59-.23-3.88Z"/><path class="cls-4" d="M362.32,27.27l5.24,11.54-.57.26-5.25-11.53Z"/><path class="cls-4" d="M381.13,354.76l1-3,2.75,1.4-2.49,2.32Z"/><path class="cls-4" d="M289.16,41.23l2.61-2,2.93,1.57h0l-3.77,2.65-1.68-2.26Z"/><path class="cls-4" d="M411.12,237.06l-6.8,5.22-.54-.68,6.71-5.26Z"/><path class="cls-4" d="M354.93,424l-6,4.78-.66-.84,6.11-4.67Z"/><path class="cls-4" d="M310,437.13l-9.65,4.43-.37-.86,9.67-4.19Z"/><path class="cls-4" d="M382.49,321.64,389,324.2l-.41,1.09-6.41-2.54Z"/><path class="cls-4" d="M292.32,28.28l6.08-5.22.63.72-5.88,5.44Z"/><path class="cls-4" d="M357.08,89.7l4.07,7.63-.86.45-3.93-7.7Z"/><path class="cls-4" d="M362.16,229l-4.3-7,.85-.51,4.2,7.11Z"/><path class="cls-4" d="M290.09,166.43l5.57-6.8,1.23,1.24-6.39,6Z"/><path class="cls-4" d="M300.81,311.28c-1.91.3-3.37,2.77-4.95-.13C297.37,309.33,298.83,308.88,300.81,311.28Z"/><path class="cls-4" d="M300.65,229.64l-1.76,5.91a16.64,16.64,0,0,1-1.36-2.78c-.27-1.27-.22-2.32,1.68-1.69.29.09,1-.92,1.45-1.42Z"/><path class="cls-4" d="M385,285.87l-.1-.11.9,1.89L382,290c-.08-.7-.15-1.25-.22-1.81l-.09.11c.78-.83,1.53-1.68,2.36-2.45C384.22,285.69,384.68,285.85,385,285.87Z"/><path class="cls-4" d="M460.93,269l1,7.12-.54.13-1.68-6.84Z"/><path class="cls-4" d="M351.07,156.83l1.1-.4v.35H351Z"/><path class="cls-4" d="M351,156.78l.15.27a1.8,1.8,0,0,0-.08-.21Z"/><path class="cls-2" d="M220.32,317q3.19-9.58,6.4-19.16l1.13.35q-1.18,4.35-2.35,8.68c-.84,3.1-1.6,6.22-2.55,9.28-.21.66-1.12,1.09-1.71,1.63Z"/><path class="cls-2" d="M234.41,279.81l6.75-19.24,1.49.54L235.22,280Z"/><path class="cls-2" d="M263.21,121.27c-3.86-1-4.4-5.21-3.5-10.08Z"/><path class="cls-2" d="M254.08,54.83l2.86-7c1.16,3.51.25,6.37-1.75,7.5Z"/><path class="cls-2" d="M416.87,439l1.06,3.35c4.49-1.54,5.19-1.3,5.87,2.43-1.56-1.76-4.06,3.37-4.91-2.34a10.84,10.84,0,0,1-1.57,2.5,2.74,2.74,0,0,1-2,.74,2.7,2.7,0,0,1-1.48-1.64c-.11-.35.71-1,1-1.5C415.61,441.4,416.2,440.25,416.87,439Z"/><path class="cls-2" d="M429.68,446.69l1.11,1.06c2.65-2.77,5.78-1.19,9.21-1.45l-1.37,3.08-.19-1c-.94,0-1.88-.12-2.81-.06-1.84.12-3.68.44-5.52.43-.4,0-.79-1-1.19-1.56Z"/><path class="cls-2" d="M440.59,446v-2.88a5.37,5.37,0,0,1-1.07-.54c-.5-.4-1.14-.82-1.32-1.37-.1-.29.61-1.21,1-1.23a2.78,2.78,0,0,1,2.09.65C442.69,442.48,442,444.3,440.59,446Z"/><path class="cls-2" d="M423.78,443.13c.73-1.44,1.29-2.53,1.85-3.62.74.75,2.2,1.71,2.06,2.21-.32,1.11-1.45,2-2.24,2.95Z"/><path class="cls-2" d="M436.12,446c-.87-1-1.75-1.6-1.75-2.19s1-1.79,1.29-1.71a3.5,3.5,0,0,1,2,1.56C437.85,444,436.9,444.84,436.12,446Z"/><path class="cls-2" d="M363.57,242.84l-3,1.93.24.56,4.67-1,.24.9-9.61,3.29-.25-.43,3.59-3c-3.62-1.63-5.19,1.27-8.13,2.42l3.41.81c-3.53,1.09-5.56,2.34-1.39,4.71l-3.64.36c-.12-.72-.23-1.37-.41-2.48-.35,1.39-.59,2.35-1,3.8l5.58-1.12.19.63-6.16,2.38,5.46.74-.58,2.37-5.74.65.16,1.18,4.22-.77c-1.47,1-2.43,1.71-3.41,2.37l-5.8-2.84c.9,1.69,1.56,2.94,2.17,4.1l3.6-1.3c4.35-.62,8.69-1.28,13-1.81.45-.06,1,.6,1.3,1.15-3.69,0-7.08.06-9.58,3.34l5.45-1.18c-3.68,2.93-5.54,2.76-6.81-.6l-6.66,1.44.19.94,3.23-.49c-.34,2.32.33,3.36,3,3.06,2-.24,4.15.17,6.77.32L352,271.18l.11.43,12.9-1.8,4.7-12.43-3.59,1.84-.76-.94,2.67-1.08-.74-1-3.18,1.27-.39-.47,5.94-3.56-.45-.85-3.53,2-.36-.56,2.05-1.77-.18-.41-3,1.17-.39-.71,8.27-3.62-2.15,6.37.49.28,3.76-4.83a11.74,11.74,0,0,1,.12,2.9c-2.31,7-4.32,14.09-7.26,20.79-.81,1.85-4.46,2.44-7,3.05l2.2-3.91c-2.67-.26-5.15-.91-7.51-.62s-4.65,1.52-7,2.34l2-2.72C348,271,348,271,342.87,273.6l4.56-.93.37.85-5,1.84.14.69,3.29-.46c-.06,2.74-2.66,6-5.43,7.13-.74.3-1.26,1.14-1.88,1.73l.6.64,6.16-3.69c-.49-3.23,1.7-4.78,6.73-4.52l-.3,2c1-.93,1.71-2.08,2.74-2.48s2.4-.1,3.62-.1l.18.8-12,5.86,1.31,3.61-3.86-2.15-5.2,3.87L336.15,283c.14-.44.52-.95.39-1.27-1.15-3.06-2.39-6.09-3.6-9.12l6.63,3.56.87-.83-7.71-7.14.31,4.55-1.36-.84a21.83,21.83,0,0,0,2,6.6c.73,1.58,1.66,3.06,2.5,4.59-5-4.09-7.71-12.2-5.62-18.09,2.35-6.63,5.14-13.11,7.73-19.66a25.35,25.35,0,0,0,.87-2.54c.37-1.38.23-3.09,2.44-3.11.23,0,.45-1.08.36-.85l12.48.62L347,240v.71h2.53l1.73,2.67,2.42-1.86-.46,3.1.52.59c1.87-2.79,3.8-5.45,8.25-3.75l-4,1.13,5.64.38Zm-32.46,27,5.16-13,2.78-.48-.06-.42-2.38-.41,4.23-10.39C334.41,252.15,334,261.48,331.11,269.84Zm9,1.54,5.65-3.43-3.47-.56c-.58,2.56-1.57,3-3.25,1.33-1.46-1.42-2.82-2.92-4.22-4.39l-.77.71c.2,3.65,4.27,3.92,6.05,6.34Zm6.66-14.68.05-.94-6.7-4.83-.69.5a36.17,36.17,0,0,0,4,4.39c.77.67,2.19.61,3.33.88Z"/><path class="cls-2" d="M360.32,247.9l10-1.34.46,1.17L367.16,250l-.43-.47,1-1.49-7.18,1.23Z"/><path class="cls-2" d="M360.32,252.43l2.48-.6v2.49L356.93,252c.4-.6.77-1.69,1.2-1.71a19,19,0,0,1,3.91.51l-2,1.3Z"/><path class="cls-2" d="M354.32,260.28c.25-1,.3-2.69.8-2.83a59.16,59.16,0,0,1,7.81-1.4,9.43,9.43,0,0,1,.67,1.84C358.92,256.12,356.24,257,354.32,260.28Z"/><path class="cls-2" d="M365.6,266.65l-5.66,3.14C360,266.59,360.93,266,365.6,266.65Z"/><path class="cls-2" d="M304.32,144.83c5.39-.65,15.27,4,16.85,8C315.54,149.42,309.12,148.87,304.32,144.83Z"/><path class="cls-2" d="M314.78,153.55c-4.37,1.08-6.42,0-8.21-4.29Z"/><path class="cls-2" d="M305.44,123.5c-2.12,3.79.84,6.39,2.15,9.37l-.69.63c-.84-.85-2-1.55-2.46-2.56C303.19,128.37,302.57,125.7,305.44,123.5Z"/><path class="cls-2" d="M359.73,117l2.58,3.72-4.7-.36c.37-1.13.75-2.27,1.12-3.41Z"/><path class="cls-2" d="M285.26,285.47c-.2,2.28-.36,4.45-.61,6.62a1.58,1.58,0,0,1-.75,1,1.12,1.12,0,0,1-1-.28C281.58,291.29,283.09,286.17,285.26,285.47Z"/><path class="cls-2" d="M341,211l-18.66,3.81-.21-1.06,18.75-3.94Z"/><path class="cls-2" d="M465.23,223.61l-2.47-2.19-.51,1.64v-8l.7-.06.37,1.48c1-2.81,2-5.84,3.11-8.87l.91.25C466.65,213,466,218.17,465.23,223.61Z"/><path class="cls-2" d="M453.65,161.27c2.78,0,2.15,2.07,1.11,2.84s-3,.87-4.53.76c-.65,0-1.2-1.36-1.79-2.1l.68-.48,1,1.23,3.66-2.3Z"/><path class="cls-4" d="M331.11,269.84c2.87-8.36,3.3-17.69,9.73-24.74l-4.23,10.39,2.38.41.06.42-2.78.48Z"/><path class="cls-4" d="M340.1,271.38c-1.77-2.39-5.85-2.69-6.06-6.34l.77-.71c1.4,1.47,2.76,3,4.22,4.39,1.68,1.63,2.67,1.23,3.25-1.33l3.47.56Z"/><path class="cls-4" d="M333,272.7l-.31-4.55,7.71,7.14-.87.83-6.63-3.56Z"/><path class="cls-4" d="M333,272.7l-.1-.14c1.21,3,2.45,6.06,3.6,9.12.13.32-.25.83-.39,1.27l.06.09c-.83-1.52-1.76-3-2.49-4.58a21.83,21.83,0,0,1-2-6.6Z"/><path class="cls-4" d="M346.76,256.7c-1.14-.27-2.56-.21-3.37-.88a36.17,36.17,0,0,1-4-4.39l.69-.5,6.7,4.83Z"/><path class="cls-4" d="M348.05,263.13l-3.6,1.3c-.61-1.16-1.27-2.41-2.17-4.1l5.8,2.84Z"/></svg>